<svg width="592" height="75" viewBox="0 0 592 75" fill="none" xmlns="http://www.w3.org/2000/svg">
<g clip-path="url(#clip0_30_1478)">
<path d="M0 74.496V13.968H4.656V9.312H9.311V4.656H13.967V0H74.495V60.528H69.839V65.184H65.183V69.84H60.528V74.496H0ZM55.872 69.839V18.624H4.656V69.84L55.872 69.839ZM60.528 9.312H65.183V4.656H13.967L13.968 9.312H9.312V13.968H60.529L60.528 9.312ZM18.624 60.528V27.936H37.248V32.592H41.904V55.872H37.248V60.528H18.624ZM37.248 55.872V32.592H23.28V55.872H37.248ZM65.183 60.528H69.839V9.312H65.183V13.968H60.529L60.528 65.184H65.183V60.528Z" fill="#D4FF5A"/>
<path d="M83.807 60.528V55.872H93.12V32.592L83.807 32.665V27.936H107.087V32.592H97.774V55.872H107.087V60.528H83.807Z" fill="#D4FF5A"/>
<path d="M116.399 60.528V27.936H135.023V32.592H139.679V55.872H135.023V60.528H116.399ZM135.023 55.872V32.592H121.055V55.872H135.023Z" fill="#D4FF5A"/>
<path d="M167.616 74.496V13.968H172.271V9.312H176.927V4.656H181.583V0H242.111V60.528H237.455V65.184H232.799V69.84H228.143V74.496H167.616ZM223.488 69.839V18.624H172.271V69.84L223.488 69.839ZM228.143 9.312H232.799V4.656H181.583V9.312H176.927V13.968H228.143V9.312ZM195.552 60.528V46.56H190.896V41.904H186.241V27.936H190.896V41.904H204.865V27.936H209.52V41.904H204.865V46.56H200.209V60.528H195.552ZM232.8 60.528H237.455L237.456 9.312H232.8V13.968H228.143L228.144 65.184H232.8V60.528Z" fill="#D4FF5A"/>
<path d="M256.08 60.528V55.872H251.424V32.592H256.08V27.936H270.048V32.592H274.704V55.872H270.048V60.528H256.08ZM270.048 32.592H256.08V55.872H270.048V32.592Z" fill="#D4FF5A"/>
<path d="M288.672 60.528V55.872H284.016V27.936H288.672V55.872H302.64V27.936H307.296V55.872H302.64V60.528H288.672Z" fill="#D4FF5A"/>
<path d="M335.232 74.496V13.968H339.887V9.312H344.543V4.656H349.199V0H409.727V60.528H405.071V65.184H400.415V69.84H395.759V74.496H335.232ZM391.104 69.839V18.624H339.887V69.84L391.104 69.839ZM395.76 9.312H400.416V4.656H349.2V9.312H344.543L344.544 13.968H395.76V9.312ZM353.856 60.528V27.936H358.511V41.904H363.167V37.248H367.823V32.592H372.479V27.936H377.134V32.592H372.479V37.248H367.823V41.904H363.167V46.56H367.823V51.216H372.479V55.872H377.134V60.528H372.479V55.872H367.823V51.216H363.167V46.56H358.511V60.528H353.856ZM400.416 60.528H405.071L405.072 9.312H400.416V13.968H395.76V65.184H400.415L400.416 60.528Z" fill="#D4FF5A"/>
<path d="M419.04 60.528V27.936H428.353V32.592H433.008V55.872H437.664V27.936H442.32V60.528H437.664H433.008V55.872H428.353V32.592H423.697V60.528H419.04Z" fill="#D4FF5A"/>
<path d="M456.288 60.528V55.872H451.632V32.592H456.288V27.936H470.256V32.592H474.912V55.872H470.256V60.528H456.288ZM470.256 32.592H456.288V55.872H470.256V32.592Z" fill="#D4FF5A"/>
<path d="M484.224 60.528V27.936H488.879V55.872H493.535V27.936H498.191V55.872H502.847V27.936H507.502V60.528H498.19V55.872H493.535L493.534 60.528H484.224Z" fill="#D4FF5A"/>
<path d="M516.816 74.496V13.968H521.472V9.312H526.127V4.656H530.783V0H591.311V60.528H586.655V65.184H581.999V69.84H577.344V74.496H516.816ZM572.688 69.839V18.624H521.472V69.84L572.688 69.839ZM577.345 9.312H582V4.656H530.783L530.784 9.312H526.127L526.128 13.968H577.345V9.312ZM544.752 51.215V41.903H549.408V37.247H554.064V32.591H540.096V41.903H535.44V32.591H540.096V27.935H554.064V32.591H558.72V37.247H554.064V41.903H549.408V51.215H544.752ZM544.752 60.528V55.872H549.408V60.528H544.752ZM582 60.528H586.655L586.656 9.312H582V13.968H577.345V65.184H581.999L582 60.528Z" fill="#D4FF5A"/>
</g>
<defs>
<clipPath id="clip0_30_1478">
<rect width="592" height="75" fill="white"/>
</clipPath>
</defs>
</svg>
