<?xml version="1.0" encoding="utf-8"?>
<!-- Generator: Adobe Illustrator 16.0.0, SVG Export Plug-In . SVG Version: 6.00 Build 0)  -->
<!DOCTYPE svg PUBLIC "-//W3C//DTD SVG 1.1 Tiny//EN" "http://www.w3.org/Graphics/SVG/1.1/DTD/svg11-tiny.dtd">
<svg version="1.1" baseProfile="tiny" id="Layer_1" xmlns="http://www.w3.org/2000/svg" xmlns:xlink="http://www.w3.org/1999/xlink"
	 x="0px" y="0px" width="1917px" height="1077.355px" viewBox="0 0 1917 1077.355" xml:space="preserve">
<g>
	<path fill="none" d="M762.947,545.795l-33.593-59.075l-59.073,33.592l33.592,59.075L762.947,545.795z M729.987,550.323l-5.37,3.054
		l-3.054-5.37l5.37-3.054L729.987,550.323z M695.553,527.262l5.371-3.054l-3.055-5.37l16.111-9.162l3.055,5.37l5.37-3.054
		l3.054,5.37l-5.371,3.054l3.055,5.37l-5.371,3.054l6.108,10.742l-5.37,3.054l-6.108-10.742l5.37-3.054l-3.055-5.37l5.371-3.054
		l-3.053-5.37l-16.111,9.162l6.107,10.74l-5.371,3.054L695.553,527.262z"/>
	<path fill="none" d="M913.631,326.233l-33.593-59.074l-59.073,33.593l33.592,59.074L913.631,326.233z M880.671,330.762l-5.37,3.054
		l-3.054-5.37l5.37-3.054L880.671,330.762z M846.236,307.701l5.371-3.054l-3.054-5.37l16.11-9.161l3.055,5.37l5.37-3.054l3.054,5.37
		l-5.371,3.054l3.055,5.37l-5.371,3.054l6.108,10.741l-5.37,3.054l-6.107-10.741l5.369-3.054l-3.053-5.37l5.369-3.054l-3.053-5.37
		l-16.111,9.161l6.107,10.74l-5.371,3.054L846.236,307.701z"/>
	<polygon fill="none" points="1024.213,475.105 1027.266,480.475 1021.896,483.529 1055.488,542.604 1060.858,539.549 
		1057.805,534.179 1063.175,531.125 1029.582,472.051 	"/>
	<polygon fill="none" points="884.672,250.311 887.726,255.681 882.355,258.734 915.947,317.809 921.317,314.755 918.264,309.385 
		923.633,306.331 890.042,247.257 	"/>
	<polygon fill="none" points="733.988,469.872 737.041,475.242 731.671,478.296 765.264,537.37 770.633,534.316 767.58,528.946 
		772.95,525.892 739.357,466.818 	"/>
	<polygon fill="none" points="882.355,258.734 879.301,253.364 884.672,250.311 881.617,244.94 822.543,278.533 825.598,283.903 
		820.227,286.957 823.281,292.327 	"/>
	<polygon fill="none" points="731.671,478.296 728.617,472.926 733.988,469.872 730.934,464.501 671.86,498.094 674.914,503.464 
		669.543,506.518 672.598,511.888 	"/>
	<polygon fill="none" points="1062.674,954.132 1065.729,959.503 1060.357,962.557 1093.949,1021.63 1099.32,1018.576 
		1096.266,1013.206 1101.637,1010.152 1068.045,951.078 	"/>
	<polygon fill="none" points="805.146,931.893 808.199,937.263 802.829,940.317 836.422,999.392 841.792,996.337 838.738,990.967 
		844.108,987.914 810.516,928.839 	"/>
	<polygon fill="none" points="1060.357,962.557 1057.304,957.186 1062.674,954.132 1059.621,948.762 1000.547,982.354 
		1003.601,987.725 998.23,990.778 1001.283,996.149 	"/>
	<polygon fill="none" points="1021.896,483.529 1018.842,478.159 1024.213,475.105 1021.158,469.735 962.086,503.327 
		965.139,508.697 959.768,511.751 962.822,517.121 	"/>
	<polygon fill="none" points="1180.412,729.34 1183.465,734.71 1178.096,737.764 1211.688,796.837 1217.059,793.783 
		1214.004,788.413 1219.375,785.359 1185.782,726.286 	"/>
	<path fill="none" d="M998.967,1004.573l33.594,59.074l59.072-33.592l-33.592-59.074L998.967,1004.573z M1041.089,1016.156
		l5.37-3.054l-3.054-5.37l5.37-3.054l-3.055-5.37l-16.11,9.162l6.108,10.74l-5.371,3.054l-6.107-10.74l5.37-3.054l-3.054-5.37
		l16.111-9.162l3.053,5.37l5.371-3.054l3.055,5.37l-5.371,3.054l3.054,5.37l-5.37,3.054l6.107,10.741l-5.369,3.054
		L1041.089,1016.156z M1053.305,1037.637l-3.055-5.37l5.371-3.054l3.053,5.37L1053.305,1037.637z"/>
	<polygon fill="none" points="802.829,940.317 799.775,934.947 805.146,931.893 802.092,926.523 743.018,960.115 746.072,965.485 
		740.701,968.539 743.756,973.909 	"/>
	<path fill="none" d="M741.439,982.333l33.592,59.075l59.074-33.592l-33.593-59.075L741.439,982.333z M783.561,993.916l5.37-3.054
		l-3.054-5.37l5.369-3.054l-3.053-5.37l-16.111,9.162l6.107,10.74l-5.371,3.054l-6.107-10.74l5.371-3.054l-3.055-5.37l16.111-9.162
		l3.055,5.37l5.37-3.054l3.054,5.37l-5.371,3.054l3.055,5.37l-5.37,3.054l6.108,10.741l-5.371,3.054L783.561,993.916z
		 M795.775,1015.398l-3.054-5.37l5.37-3.054l3.055,5.37L795.775,1015.398z"/>
	<polygon fill="none" points="923.131,729.339 926.186,734.709 920.814,737.763 954.406,796.837 959.777,793.783 956.724,788.413 
		962.094,785.359 928.502,726.285 	"/>
	<polygon fill="none" points="920.814,737.763 917.761,732.393 923.131,729.339 920.078,723.969 861.004,757.561 864.057,762.931 
		858.686,765.985 861.74,771.355 	"/>
	<path fill="none" d="M859.424,779.779l33.593,59.075l59.074-33.593l-33.593-59.075L859.424,779.779z M901.545,791.361l5.37-3.054
		l-3.054-5.37l5.369-3.054l-3.053-5.37l-16.111,9.162l6.107,10.74l-5.369,3.054l-6.107-10.74l5.369-3.054l-3.053-5.37l16.11-9.162
		l3.054,5.37l5.371-3.054l3.053,5.37l-5.371,3.054l3.055,5.37l-5.37,3.054l6.108,10.742l-5.37,3.054L901.545,791.361z
		 M913.761,812.844l-3.054-5.37l5.37-3.054l3.054,5.37L913.761,812.844z"/>
	<polygon fill="none" points="1141.951,250.312 1145.005,255.682 1139.635,258.735 1173.227,317.81 1178.598,314.756 
		1175.543,309.386 1180.914,306.332 1147.321,247.258 	"/>
	<polygon fill="none" points="360.354,707.099 363.408,712.469 358.037,715.523 391.629,774.597 397,771.543 393.946,766.173 
		399.316,763.119 365.725,704.045 	"/>
	<polygon fill="none" points="547.864,931.892 550.918,937.262 545.547,940.316 579.139,999.39 584.51,996.335 581.457,990.965 
		586.826,987.912 553.234,928.838 	"/>
	<polygon fill="none" points="358.037,715.523 354.982,710.153 360.354,707.099 357.301,701.729 298.227,735.321 301.28,740.691 
		295.91,743.745 298.963,749.115 	"/>
	<polygon fill="none" points="240.299,940.316 237.245,934.946 242.615,931.893 239.563,926.522 180.488,960.115 183.541,965.485 
		178.171,968.539 181.225,973.909 	"/>
	<path fill="none" d="M296.646,757.539l33.594,59.075l59.073-33.592l-33.593-59.075L296.646,757.539z M338.769,769.122l5.37-3.054
		l-3.054-5.37l5.37-3.054l-3.054-5.37l-16.111,9.162l6.107,10.74l-5.37,3.054l-6.107-10.74l5.37-3.054l-3.054-5.37l16.111-9.162
		l3.054,5.37l5.37-3.054l3.055,5.37l-5.371,3.054l3.054,5.37l-5.37,3.054l6.107,10.741l-5.369,3.054L338.769,769.122z
		 M350.984,790.604l-3.055-5.371l5.371-3.054l3.053,5.371L350.984,790.604z"/>
	<path fill="none" d="M159.234,106.27l-33.594-59.075L66.566,80.786l33.594,59.075L159.234,106.27z M126.273,110.797l-5.37,3.054
		l-3.054-5.371l5.37-3.054L126.273,110.797z M91.84,87.736l5.37-3.054l-3.054-5.37l16.111-9.162l3.053,5.37l5.371-3.054l3.054,5.37
		l-5.37,3.054l3.053,5.37l-5.369,3.054l6.107,10.741l-5.37,3.054l-6.108-10.741l5.371-3.054l-3.055-5.37l5.371-3.054l-3.055-5.37
		l-16.11,9.162l6.107,10.74l-5.37,3.054L91.84,87.736z"/>
	<path fill="none" d="M178.908,982.333l33.593,59.074l59.073-33.592l-33.592-59.074L178.908,982.333z M221.029,993.915l5.371-3.054
		l-3.055-5.37l5.37-3.054l-3.054-5.37l-16.111,9.162l6.108,10.74l-5.37,3.054l-6.107-10.74l5.369-3.054l-3.053-5.37l16.11-9.162
		l3.054,5.37l5.371-3.054l3.053,5.37l-5.37,3.054l3.054,5.37l-5.369,3.054l6.107,10.741l-5.37,3.054L221.029,993.915z
		 M233.245,1015.396l-3.054-5.37l5.37-3.054l3.054,5.37L233.245,1015.396z"/>
	<polygon fill="none" points="127.957,38.771 124.903,33.4 130.273,30.346 127.221,24.976 68.146,58.568 71.2,63.938 65.83,66.992 
		68.884,72.362 	"/>
	<polygon fill="none" points="242.615,931.893 245.67,937.263 240.299,940.316 273.891,999.391 279.262,996.337 276.208,990.966 
		281.578,987.912 247.986,928.839 	"/>
	<path fill="none" d="M552.542,745.106l33.593,59.074l59.074-33.592l-33.594-59.074L552.542,745.106z M594.663,756.689l5.37-3.054
		l-3.054-5.37l5.37-3.054l-3.054-5.37l-16.11,9.162l6.107,10.74l-5.371,3.054l-6.107-10.74l5.371-3.054l-3.055-5.37l16.111-9.162
		l3.054,5.37l5.37-3.054l3.055,5.37l-5.371,3.054l3.054,5.37l-5.37,3.054l6.107,10.741l-5.369,3.054L594.663,756.689z
		 M606.879,778.171l-3.055-5.37l5.371-3.054l3.053,5.37L606.879,778.171z"/>
	<polygon fill="none" points="613.933,703.091 610.879,697.721 616.25,694.667 613.195,689.296 554.121,722.889 557.176,728.259 
		551.805,731.313 554.858,736.683 	"/>
	<path fill="none" d="M1170.91,326.234l-33.592-59.075l-59.074,33.592l33.592,59.075L1170.91,326.234z M1137.951,330.763
		l-5.371,3.054l-3.053-5.37l5.369-3.054L1137.951,330.763z M1103.517,307.701l5.37-3.054l-3.054-5.37l16.11-9.161l3.055,5.37
		l5.369-3.054l3.055,5.37l-5.37,3.054l3.054,5.37l-5.371,3.054l6.109,10.742l-5.371,3.054l-6.107-10.742l5.369-3.054l-3.053-5.37
		l5.37-3.054l-3.054-5.37l-16.111,9.161l6.107,10.74l-5.369,3.054L1103.517,307.701z"/>
	<polygon fill="none" points="1139.635,258.735 1136.58,253.365 1141.951,250.312 1138.897,244.941 1079.823,278.533 
		1082.877,283.903 1077.506,286.958 1080.561,292.328 	"/>
	<path fill="none" d="M1116.705,779.78l33.592,59.074l59.074-33.592l-33.593-59.074L1116.705,779.78z M1158.826,791.362l5.37-3.054
		l-3.054-5.37l5.37-3.054l-3.054-5.37l-16.111,9.162l6.107,10.74l-5.369,3.054l-6.107-10.74l5.369-3.054l-3.053-5.37l16.11-9.162
		l3.054,5.37l5.371-3.054l3.053,5.37l-5.37,3.054l3.054,5.37l-5.37,3.054l6.108,10.741l-5.371,3.054L1158.826,791.362z
		 M1171.041,812.844l-3.053-5.37l5.369-3.054l3.055,5.37L1171.041,812.844z"/>
	<path fill="none" d="M484.157,982.332l33.593,59.074l59.074-33.592L543.23,948.74L484.157,982.332z M526.278,993.915l5.37-3.054
		l-3.054-5.37l5.37-3.054l-3.054-5.37l-16.11,9.162l6.107,10.74l-5.371,3.054l-6.107-10.74l5.371-3.054l-3.055-5.37l16.111-9.162
		l3.054,5.37l5.37-3.054l3.055,5.37l-5.371,3.054l3.053,5.37l-5.369,3.054l6.107,10.741l-5.369,3.054L526.278,993.915z
		 M538.494,1015.396l-3.055-5.37l5.371-3.054l3.053,5.37L538.494,1015.396z"/>
	<polygon fill="none" points="545.547,940.316 542.493,934.946 547.864,931.892 544.811,926.522 485.736,960.114 488.79,965.484 
		483.42,968.538 486.474,973.908 	"/>
	<polygon fill="none" points="616.25,694.667 619.303,700.037 613.933,703.091 647.525,762.165 652.896,759.111 649.842,753.74 
		655.211,750.686 621.619,691.613 	"/>
	<path fill="none" d="M1053.172,551.028l-33.593-59.075l-59.073,33.592l33.592,59.075L1053.172,551.028z M1020.212,555.556
		l-5.37,3.054l-3.054-5.371l5.37-3.054L1020.212,555.556z M985.777,532.495l5.371-3.054l-3.055-5.37l16.111-9.162l3.054,5.37
		l5.37-3.054l3.055,5.37l-5.371,3.054l3.054,5.37l-5.37,3.054l6.108,10.741l-5.37,3.054l-6.107-10.741l5.369-3.054l-3.054-5.37
		l5.37-3.054l-3.054-5.37l-16.11,9.162l6.107,10.74l-5.371,3.054L985.777,532.495z"/>
	<polygon fill="none" points="130.273,30.346 133.328,35.716 127.957,38.771 161.549,97.845 166.92,94.791 163.866,89.42 
		169.236,86.367 135.645,27.292 	"/>
	<polygon fill="none" points="1178.096,737.764 1175.041,732.394 1180.412,729.34 1177.358,723.969 1118.283,757.562 
		1121.338,762.933 1115.967,765.986 1119.021,771.356 	"/>
	<path fill="none" d="M1565.855,999.744l33.592,59.075l59.074-33.592l-33.593-59.075L1565.855,999.744z M1607.976,1011.328
		l5.37-3.054l-3.053-5.37l5.369-3.054l-3.053-5.37l-16.111,9.162l6.107,10.74l-5.371,3.054l-6.107-10.74l5.371-3.054l-3.055-5.371
		l16.111-9.162l3.055,5.371l5.37-3.054l3.054,5.37l-5.371,3.054l3.055,5.37l-5.371,3.054l6.108,10.741l-5.37,3.054
		L1607.976,1011.328z M1620.191,1032.809l-3.054-5.37l5.37-3.054l3.054,5.37L1620.191,1032.809z"/>
	<polygon fill="none" points="1627.245,957.729 1624.191,952.358 1629.563,949.304 1626.508,943.934 1567.434,977.526 
		1570.488,982.896 1565.117,985.95 1568.172,991.32 	"/>
	<polygon fill="none" points="1449.845,731.91 1446.791,726.54 1452.162,723.485 1449.107,718.115 1390.033,751.708 
		1393.088,757.078 1387.717,760.132 1390.771,765.502 	"/>
	<polygon fill="none" points="1629.563,949.304 1632.615,954.674 1627.245,957.729 1660.838,1016.803 1666.209,1013.749 
		1663.154,1008.378 1668.524,1005.325 1634.932,946.25 	"/>
	<path fill="none" d="M1308.574,999.744l33.592,59.074l59.074-33.592l-33.593-59.074L1308.574,999.744z M1350.695,1011.326
		l5.37-3.054l-3.054-5.37l5.369-3.054l-3.053-5.37l-16.111,9.162l6.107,10.74l-5.37,3.054l-6.107-10.74l5.37-3.054l-3.054-5.37
		l16.111-9.162l3.054,5.37l5.371-3.054l3.053,5.37l-5.371,3.054l3.055,5.37l-5.37,3.054l6.108,10.741l-5.371,3.054
		L1350.695,1011.326z M1362.91,1032.808l-3.054-5.37l5.37-3.054l3.055,5.37L1362.91,1032.808z"/>
	<polygon fill="none" points="1312.617,498.692 1315.672,504.063 1310.301,507.117 1343.893,566.19 1349.264,563.136 
		1346.209,557.766 1351.58,554.712 1317.988,495.639 	"/>
	<path fill="none" d="M1388.454,773.926l33.593,59.075l59.074-33.592l-33.593-59.075L1388.454,773.926z M1430.575,785.508
		l5.37-3.054l-3.054-5.37l5.37-3.054l-3.053-5.37l-16.111,9.162l6.107,10.74l-5.371,3.054l-6.107-10.74l5.371-3.054l-3.055-5.37
		l16.111-9.162l3.055,5.37l5.369-3.054l3.055,5.37l-5.371,3.054l3.053,5.37l-5.369,3.054l6.107,10.741l-5.369,3.054
		L1430.575,785.508z M1442.791,806.991l-3.054-5.37l5.37-3.054l3.054,5.37L1442.791,806.991z"/>
	<polygon fill="none" points="1452.162,723.485 1455.215,728.855 1449.845,731.91 1483.438,790.984 1488.808,787.93 
		1485.754,782.56 1491.124,779.506 1457.531,720.432 	"/>
	<polygon fill="none" points="1372.281,949.304 1375.334,954.674 1369.964,957.728 1403.557,1016.801 1408.927,1013.747 
		1405.873,1008.377 1411.243,1005.323 1377.65,946.25 	"/>
	<polygon fill="none" points="1839.002,971.775 1842.057,977.145 1836.719,980.181 1839.771,985.551 1898.497,952.157 
		1895.443,946.787 1900.783,943.75 1897.729,938.38 	"/>
	<polygon fill="none" points="68.563,309.521 65.508,304.151 70.879,301.097 37.286,242.023 31.916,245.077 34.971,250.447 
		29.6,253.501 63.191,312.575 	"/>
	<polygon fill="none" points="1827.836,489.854 1824.781,484.483 1830.152,481.43 1827.098,476.06 1768.024,509.652 
		1771.078,515.022 1765.709,518.076 1768.762,523.446 	"/>
	<polygon fill="none" points="1830.152,481.43 1833.205,486.8 1827.836,489.854 1861.428,548.927 1866.798,545.873 
		1863.744,540.503 1869.115,537.449 1835.522,478.376 	"/>
	<polygon fill="none" points="1759.008,727.333 1755.953,721.963 1761.293,718.928 1758.238,713.558 1699.514,746.951 
		1702.566,752.321 1697.229,755.357 1700.281,760.728 	"/>
	<path fill="none" d="M1697.996,769.133l33.594,59.074l58.725-33.394l-33.593-59.074L1697.996,769.133z M1739.96,780.806
		l5.339-3.036l-3.055-5.37l5.34-3.037l-3.054-5.37l-16.017,9.108l6.107,10.74l-5.339,3.036l-6.107-10.74l5.339-3.036l-3.054-5.37
		l16.017-9.108l3.054,5.37l5.337-3.035l3.055,5.37l-5.338,3.035l3.054,5.37l-5.339,3.037l6.107,10.741l-5.338,3.036L1739.96,780.806
		z M1752.176,802.287l-3.055-5.37l5.339-3.036l3.054,5.37L1752.176,802.287z"/>
	<path fill="none" d="M1766.444,531.87l33.593,59.074l59.074-33.592l-33.594-59.074L1766.444,531.87z M1808.566,543.453l5.371-3.054
		l-3.055-5.37l5.371-3.054l-3.055-5.37l-16.111,9.162l6.107,10.74l-5.37,3.054l-6.108-10.74l5.371-3.054l-3.055-5.37l16.112-9.162
		l3.054,5.37l5.371-3.054l3.053,5.37l-5.369,3.054l3.053,5.37l-5.369,3.054l6.107,10.741l-5.371,3.054L1808.566,543.453z
		 M1820.781,564.934l-3.054-5.37l5.37-3.054l3.055,5.37L1820.781,564.934z"/>
	<polygon fill="none" points="1761.293,718.928 1764.346,724.298 1759.008,727.333 1792.6,786.406 1797.938,783.371 
		1794.885,778.001 1800.223,774.965 1766.63,715.892 	"/>
	<polygon fill="none" points="1688.293,265.059 1685.239,259.689 1690.609,256.635 1687.556,251.265 1628.482,284.857 
		1631.535,290.227 1626.166,293.281 1629.219,298.651 	"/>
	<polygon fill="none" points="1690.609,256.635 1693.663,262.005 1688.293,265.059 1721.885,324.133 1727.256,321.079 
		1724.201,315.709 1729.572,312.655 1695.98,253.581 	"/>
	<path fill="none" d="M1626.902,307.075l33.592,59.075l59.074-33.592l-33.593-59.075L1626.902,307.075z M1669.023,318.659
		l5.371-3.054l-3.055-5.37l5.371-3.054l-3.055-5.37l-16.111,9.162l6.107,10.74l-5.37,3.054l-6.107-10.74l5.37-3.054l-3.054-5.37
		l16.112-9.162l3.053,5.37l5.371-3.054l3.053,5.37l-5.369,3.054l3.053,5.37l-5.369,3.054l6.107,10.741l-5.371,3.054
		L1669.023,318.659z M1681.238,340.14l-3.053-5.37l5.371-3.054l3.053,5.37L1681.238,340.14z"/>
	<path fill="none" d="M1598.857,574.616l-33.592-59.075l-59.074,33.592l33.592,59.075L1598.857,574.616z M1565.898,579.144
		l-5.371,3.054l-3.053-5.37l5.369-3.054L1565.898,579.144z M1531.464,556.083l5.37-3.054l-3.054-5.37l16.11-9.162l3.055,5.37
		l5.369-3.054l3.055,5.37l-5.37,3.054l3.054,5.371l-5.371,3.054l6.109,10.741l-5.371,3.054l-6.107-10.741l5.369-3.054l-3.053-5.371
		l5.37-3.054l-3.054-5.37l-16.111,9.162l6.107,10.741l-5.369,3.054L1531.464,556.083z"/>
	<polygon fill="none" points="1567.582,507.117 1564.527,501.747 1569.898,498.693 1566.845,493.323 1507.771,526.915 
		1510.824,532.285 1505.454,535.339 1508.508,540.709 	"/>
	<polygon fill="none" points="1788.969,41.904 1792.021,47.274 1786.652,50.328 1820.244,109.402 1825.614,106.348 
		1822.561,100.978 1827.931,97.924 1794.338,38.85 	"/>
	<path fill="none" d="M1817.928,117.828l-33.594-59.075l-59.074,33.592l33.594,59.075L1817.928,117.828z M1784.969,122.355
		l-5.371,3.054l-3.055-5.371l5.371-3.054L1784.969,122.355z M1750.533,99.294l5.371-3.054l-3.055-5.37l16.111-9.162l3.055,5.37
		l5.369-3.054l3.055,5.37l-5.371,3.054l3.055,5.37l-5.371,3.054l6.109,10.741l-5.371,3.054l-6.109-10.741l5.371-3.054l-3.053-5.37
		l5.369-3.054l-3.053-5.37l-16.111,9.162l6.107,10.74l-5.371,3.054L1750.533,99.294z"/>
	<polygon fill="none" points="1786.652,50.328 1783.598,44.958 1788.969,41.904 1785.914,36.534 1726.841,70.126 1729.895,75.496 
		1724.523,78.55 1727.578,83.92 	"/>
	<path fill="none" d="M1341.577,574.615l-33.593-59.074l-59.074,33.592l33.594,59.074L1341.577,574.615z M1308.617,579.143
		l-5.371,3.054l-3.053-5.37l5.369-3.054L1308.617,579.143z M1274.184,556.083l5.369-3.054l-3.053-5.37l16.111-9.162l3.053,5.37
		l5.371-3.054l3.054,5.37l-5.37,3.054l3.053,5.37l-5.37,3.054l6.108,10.741l-5.371,3.054l-6.107-10.741l5.37-3.054l-3.054-5.37
		l5.371-3.054l-3.055-5.37l-16.111,9.162l6.107,10.74l-5.369,3.054L1274.184,556.083z"/>
	<polygon fill="none" points="1381.004,261.465 1384.059,266.835 1378.688,269.889 1412.279,328.963 1417.65,325.909 
		1414.596,320.539 1419.967,317.485 1386.375,258.411 	"/>
	<polygon fill="none" points="1378.688,269.889 1375.633,264.519 1381.004,261.465 1377.95,256.095 1318.877,289.687 
		1321.931,295.057 1316.561,298.111 1319.613,303.481 	"/>
	<polygon fill="none" points="1310.301,507.117 1307.247,501.747 1312.617,498.692 1309.563,493.322 1250.49,526.915 
		1253.544,532.285 1248.174,535.339 1251.227,540.709 	"/>
	<path fill="none" d="M1409.964,337.388l-33.593-59.075l-59.074,33.593l33.594,59.075L1409.964,337.388z M1377.004,341.916
		l-5.371,3.054l-3.053-5.371l5.37-3.054L1377.004,341.916z M1342.57,318.854l5.369-3.054l-3.053-5.37l16.111-9.161l3.053,5.37
		l5.371-3.054l3.054,5.37l-5.37,3.054l3.053,5.37l-5.369,3.054l6.107,10.741l-5.371,3.054l-6.107-10.741l5.371-3.054l-3.055-5.37
		l5.371-3.054l-3.055-5.37l-16.111,9.161l6.107,10.74l-5.369,3.054L1342.57,318.854z"/>
	<polygon fill="none" points="1496.426,45.096 1493.371,39.726 1498.742,36.672 1495.688,31.302 1436.614,64.894 1439.668,70.264 
		1434.298,73.317 1437.352,78.688 	"/>
	<polygon fill="none" points="1498.742,36.672 1501.795,42.042 1496.426,45.096 1530.018,104.17 1535.388,101.116 1532.334,95.746 
		1537.705,92.692 1504.112,33.618 	"/>
	<path fill="none" d="M1435.034,87.112l33.593,59.075l59.074-33.592l-33.594-59.075L1435.034,87.112z M1477.155,98.694l5.371-3.054
		l-3.054-5.37l5.37-3.054l-3.054-5.37l-16.111,9.162l6.107,10.74l-5.371,3.054l-6.107-10.74l5.371-3.054l-3.054-5.37l16.11-9.162
		l3.055,5.37l5.37-3.054l3.054,5.37l-5.37,3.054l3.054,5.37l-5.37,3.054l6.108,10.741l-5.371,3.054L1477.155,98.694z
		 M1489.371,120.177l-3.054-5.37l5.371-3.054l3.054,5.37L1489.371,120.177z"/>
	<polygon fill="none" points="1569.898,498.693 1572.951,504.063 1567.582,507.117 1601.174,566.191 1606.545,563.137 
		1603.49,557.767 1608.861,554.713 1575.269,495.639 	"/>
	<polygon fill="none" points="1369.964,957.728 1366.91,952.358 1372.281,949.304 1369.227,943.934 1310.152,977.526 
		1313.207,982.896 1307.836,985.95 1310.891,991.32 	"/>
	<path fill="none" d="M608.381,326.234l-33.592-59.074l-59.074,33.592l33.593,59.074L608.381,326.234z M575.422,330.763l-5.37,3.054
		l-3.054-5.37l5.369-3.054L575.422,330.763z M540.988,307.702l5.369-3.054l-3.053-5.37l16.11-9.161l3.054,5.37l5.371-3.054
		l3.053,5.37l-5.37,3.054l3.054,5.37l-5.369,3.054l6.107,10.741l-5.37,3.054l-6.108-10.741l5.371-3.054l-3.055-5.37l5.37-3.054
		l-3.054-5.37l-16.111,9.161l6.107,10.74l-5.369,3.054L540.988,307.702z"/>
	<polygon fill="none" points="476.706,469.87 479.76,475.24 474.389,478.294 507.981,537.368 513.352,534.313 510.299,528.943 
		515.668,525.89 482.076,466.816 	"/>
	<polygon fill="none" points="474.389,478.294 471.336,472.924 476.706,469.87 473.652,464.5 414.578,498.093 417.633,503.463 
		412.262,506.517 415.314,511.887 	"/>
	<path fill="none" d="M225.49,295.518l33.592,59.075L318.156,321l-33.593-59.075L225.49,295.518z M267.611,307.1l5.369-3.054
		l-3.053-5.37l5.369-3.054l-3.054-5.37l-16.11,9.161l6.107,10.74l-5.37,3.054l-6.108-10.74l5.371-3.054l-3.055-5.37l16.111-9.161
		l3.054,5.37l5.37-3.054l3.055,5.37l-5.371,3.054l3.055,5.37l-5.371,3.054l6.108,10.741l-5.37,3.054L267.611,307.1z
		 M279.826,328.582l-3.054-5.371l5.37-3.054l3.054,5.371L279.826,328.582z"/>
	<polygon fill="none" points="169.141,478.296 166.088,472.926 171.458,469.872 168.404,464.502 109.33,498.094 112.385,503.464 
		107.014,506.518 110.067,511.888 	"/>
	<path fill="none" d="M505.666,545.793l-33.594-59.074l-59.073,33.592l33.593,59.074L505.666,545.793z M472.706,550.32l-5.37,3.054
		l-3.055-5.37l5.371-3.054L472.706,550.32z M438.271,527.261l5.371-3.054l-3.055-5.37l16.111-9.162l3.055,5.37l5.37-3.054
		l3.054,5.37l-5.371,3.054l3.055,5.37l-5.371,3.054l6.107,10.741l-5.369,3.054l-6.108-10.741l5.37-3.054l-3.053-5.37l5.369-3.054
		l-3.053-5.37l-16.111,9.162l6.107,10.74l-5.371,3.054L438.271,527.261z"/>
	<path fill="none" d="M200.418,545.794l-33.594-59.074l-59.073,33.593l33.593,59.074L200.418,545.794z M167.458,550.322l-5.37,3.054
		l-3.054-5.37l5.37-3.054L167.458,550.322z M133.023,527.262l5.37-3.054l-3.054-5.37l16.111-9.161l3.054,5.37l5.37-3.054l3.055,5.37
		l-5.371,3.054l3.054,5.37l-5.37,3.054l6.107,10.741l-5.369,3.054l-6.108-10.741l5.37-3.054l-3.054-5.37l5.37-3.054l-3.054-5.37
		l-16.111,9.161l6.107,10.74l-5.37,3.054L133.023,527.262z"/>
	<polygon fill="none" points="289.197,245.077 292.25,250.447 286.88,253.501 320.473,312.575 325.843,309.521 322.789,304.151 
		328.159,301.098 294.566,242.023 	"/>
	<path fill="none" d="M132.034,783.021l-33.593-59.074l-59.074,33.592l33.594,59.074L132.034,783.021z M99.074,787.548l-5.37,3.054
		l-3.054-5.37l5.37-3.054L99.074,787.548z M64.641,764.488l5.369-3.054l-3.053-5.37l16.111-9.162l3.053,5.37l5.371-3.054l3.054,5.37
		l-5.37,3.054l3.053,5.37l-5.37,3.054l6.108,10.741l-5.371,3.054l-6.107-10.741l5.37-3.054l-3.054-5.37l5.371-3.054l-3.055-5.37
		l-16.111,9.162l6.107,10.74l-5.369,3.054L64.641,764.488z"/>
	<polygon fill="none" points="286.88,253.501 283.826,248.131 289.197,245.077 286.143,239.707 227.069,273.299 230.123,278.669 
		224.752,281.723 227.807,287.093 	"/>
	<polygon fill="none" points="439.881,25.517 442.934,30.887 437.564,33.941 471.156,93.015 476.527,89.961 473.473,84.591 
		478.844,81.537 445.252,22.463 	"/>
	<polygon fill="none" points="100.758,715.521 97.704,710.151 103.074,707.097 100.021,701.727 40.947,735.319 44.001,740.689 
		38.631,743.743 41.684,749.113 	"/>
	<polygon fill="none" points="103.074,707.097 106.129,712.467 100.758,715.521 134.35,774.595 139.721,771.541 136.667,766.171 
		142.037,763.117 108.445,704.043 	"/>
	<polygon fill="none" points="437.564,33.941 434.51,28.571 439.881,25.517 436.827,20.146 377.754,53.739 380.807,59.109 
		375.437,62.163 378.49,67.533 	"/>
	<path fill="none" d="M468.84,101.44l-33.592-59.075l-59.074,33.592l33.592,59.075L468.84,101.44z M435.881,105.968l-5.37,3.054
		l-3.054-5.37l5.37-3.054L435.881,105.968z M401.446,82.907l5.37-3.054l-3.053-5.37l16.11-9.162l3.054,5.37l5.371-3.054l3.053,5.371
		l-5.37,3.054l3.054,5.37l-5.37,3.054l6.108,10.741l-5.371,3.054l-6.107-10.741l5.37-3.054l-3.054-5.37l5.37-3.054l-3.054-5.371
		l-16.111,9.162l6.107,10.741l-5.37,3.054L401.446,82.907z"/>
	<polygon fill="none" points="579.422,250.313 582.477,255.683 577.105,258.736 610.697,317.81 616.068,314.756 613.014,309.386 
		618.385,306.332 584.793,247.259 	"/>
	<polygon fill="none" points="577.105,258.736 574.052,253.366 579.422,250.313 576.369,244.942 517.295,278.534 520.349,283.904 
		514.979,286.958 518.031,292.329 	"/>
	<polygon fill="none" points="171.458,469.872 174.512,475.242 169.141,478.296 202.733,537.369 208.104,534.315 205.051,528.945 
		210.421,525.892 176.828,466.818 	"/>
	
		<rect x="16.086" y="288.321" transform="matrix(0.8693 -0.4943 0.4943 0.8693 -141.54 47.5699)" fill="#C5F9C5" width="6.179" height="6.178"/>
	<polygon fill="#C5F9C5" points="0,301.434 0,312.975 4.959,310.154 	"/>
	
		<rect x="20.614" y="321.281" transform="matrix(-0.8693 0.4942 -0.4942 -0.8693 204.6282 594.6365)" fill="#C5F9C5" width="6.178" height="6.178"/>
	
		<rect x="12.98" y="304.766" transform="matrix(-0.8693 0.4942 -0.4942 -0.8693 183.7216 573.3126)" fill="#C5F9C5" width="6.178" height="12.357"/>
	
		<rect x="13.77" y="296.746" transform="matrix(-0.8692 0.4944 -0.4944 -0.8692 179.7446 552.1309)" fill="#C5F9C5" width="6.178" height="6.177"/>
	<polygon fill="#C5F9C5" points="0,291.654 0,298.761 14.963,290.252 11.91,284.881 	"/>
	
		<rect x="27.668" y="246.2" transform="matrix(0.8693 -0.4943 0.4943 0.8693 -119.205 47.7892)" fill="#C5F9C5" width="6.179" height="6.178"/>
	
		<rect x="66.632" y="302.22" transform="matrix(-0.8692 0.4944 -0.4944 -0.8692 281.265 536.2282)" fill="#C5F9C5" width="6.177" height="6.177"/>
	<polygon fill="#C5F9C5" points="69.3,323.316 66.246,317.946 71.617,314.892 68.563,309.521 63.191,312.575 29.6,253.501 
		0,270.333 0,277.439 27.283,261.925 60.876,321 1.803,354.592 0,351.422 0,362.724 	"/>
	<polygon fill="#C5F9C5" points="70.879,301.097 76.249,298.043 36.549,228.229 0,249.012 0,256.119 28.862,239.707 31.916,245.077 
		37.286,242.023 	"/>
	
		<rect x="284.949" y="246.2" transform="matrix(0.8693 -0.4942 0.4942 0.8693 -85.57 174.9395)" fill="#C5F9C5" width="6.178" height="6.178"/>
	<path fill="#C5F9C5" d="M323.526,317.946l5.37-3.054l-3.054-5.371l-5.37,3.054l-33.593-59.074l-59.073,33.592l-3.055-5.37
		l-5.369,3.054l3.053,5.37l-5.37,3.054l39.7,69.815l69.814-39.7L323.526,317.946z M259.082,354.593l-33.592-59.075l59.073-33.593
		L318.156,321L259.082,354.593z"/>
	
		<rect x="273.366" y="288.321" transform="matrix(0.8692 -0.4944 0.4944 0.8692 -107.9191 174.7751)" fill="#C5F9C5" width="6.178" height="6.178"/>
	
		<rect x="222.822" y="274.422" transform="matrix(0.8692 -0.4944 0.4944 0.8692 -107.6566 147.9699)" fill="#C5F9C5" width="6.178" height="6.177"/>
	
		<rect x="259.572" y="282.881" transform="matrix(-0.4944 -0.8692 0.8692 -0.4944 138.5907 664.904)" fill="#C5F9C5" width="6.178" height="18.533"/>
	
		<rect x="253.413" y="300.132" transform="matrix(-0.8693 0.4943 -0.4943 -0.8693 630.8876 445.7871)" fill="#C5F9C5" width="6.178" height="12.355"/>
	<polygon fill="#C5F9C5" points="289.197,245.077 294.566,242.023 328.159,301.098 333.529,298.043 293.83,228.229 224.016,267.929 
		227.069,273.299 286.143,239.707 	"/>
	
		<rect x="270.261" y="304.765" transform="matrix(0.8692 -0.4944 0.4944 0.8692 -117.9832 175.7976)" fill="#C5F9C5" width="6.177" height="12.356"/>
	
		<rect x="271.05" y="296.745" transform="matrix(0.8692 -0.4944 0.4944 0.8692 -112.3878 174.7351)" fill="#C5F9C5" width="6.177" height="6.177"/>
	
		<rect x="323.912" y="302.221" transform="matrix(-0.8693 0.4943 -0.4943 -0.8693 762.1766 409.0679)" fill="#C5F9C5" width="6.178" height="6.178"/>
	
		<rect x="277.895" y="321.281" transform="matrix(-0.4942 -0.8693 0.8693 -0.4942 137.8792 728.9543)" fill="#C5F9C5" width="6.178" height="6.178"/>
	
		<rect x="206.173" y="527.015" transform="matrix(-0.8693 0.4942 -0.4942 -0.8693 653.181 887.506)" fill="#C5F9C5" width="6.178" height="6.178"/>
	
		<rect x="105.083" y="499.217" transform="matrix(0.8692 -0.4944 0.4944 0.8692 -234.1843 119.155)" fill="#C5F9C5" width="6.178" height="6.178"/>
	
		<rect x="160.157" y="546.075" transform="matrix(-0.8693 0.4943 -0.4943 -0.8693 576.6137 945.8474)" fill="#C5F9C5" width="6.178" height="6.178"/>
	<polygon fill="#C5F9C5" points="171.458,469.872 176.828,466.818 210.421,525.892 215.791,522.837 176.092,453.024 
		106.277,492.724 109.33,498.094 168.404,464.502 	"/>
	
		<rect x="152.523" y="529.56" transform="matrix(-0.8692 0.4944 -0.4944 -0.8692 555.736 924.4935)" fill="#C5F9C5" width="6.177" height="12.356"/>
	
		<rect x="135.673" y="524.927" transform="matrix(0.8693 -0.4943 0.4943 0.8693 -244.3951 138.0173)" fill="#C5F9C5" width="6.178" height="12.355"/>
	
		<rect x="155.628" y="513.116" transform="matrix(0.4944 0.8692 -0.8692 0.4944 528.9343 123.0154)" fill="#C5F9C5" width="6.178" height="6.178"/>
	
		<rect x="167.21" y="470.995" transform="matrix(0.8693 -0.4943 0.4943 0.8693 -212.0862 146.153)" fill="#C5F9C5" width="6.178" height="6.177"/>
	
		<rect x="153.312" y="521.54" transform="matrix(-0.8693 0.4943 -0.4943 -0.8693 551.689 903.3682)" fill="#C5F9C5" width="6.178" height="6.178"/>
	<path fill="#C5F9C5" d="M139.027,587.811l69.814-39.7l-3.055-5.37l5.371-3.054l-3.055-5.371l-5.37,3.054l-33.593-59.073
		l-59.073,33.592l-3.054-5.37l-5.37,3.054l3.054,5.37l-5.371,3.054L139.027,587.811z M166.824,486.72l33.594,59.074l-59.074,33.593
		l-33.593-59.074L166.824,486.72z"/>
	
		<rect x="135.655" y="513.854" transform="matrix(0.8693 -0.4943 0.4943 0.8693 -236.5793 139.2012)" fill="#C5F9C5" width="18.534" height="6.178"/>
	
		<rect x="440.904" y="513.852" transform="matrix(0.8693 -0.4943 0.4943 0.8693 -196.6914 290.113)" fill="#C5F9C5" width="18.534" height="6.178"/>
	
		<rect x="460.877" y="513.114" transform="matrix(0.4943 0.8693 -0.8693 0.4943 683.3461 -142.2817)" fill="#C5F9C5" width="6.178" height="6.178"/>
	
		<rect x="465.405" y="546.074" transform="matrix(-0.8692 0.4944 -0.4944 -0.8692 1147.2245 794.9084)" fill="#C5F9C5" width="6.178" height="6.178"/>
	
		<rect x="458.559" y="521.538" transform="matrix(-0.8693 0.4942 -0.4942 -0.8693 1122.265 752.527)" fill="#C5F9C5" width="6.178" height="6.178"/>
	
		<rect x="457.771" y="529.558" transform="matrix(-0.8692 0.4944 -0.4944 -0.8692 1126.3345 773.5349)" fill="#C5F9C5" width="6.177" height="12.356"/>
	
		<rect x="410.331" y="499.216" transform="matrix(0.8693 -0.4943 0.4943 0.8693 -194.256 270.0204)" fill="#C5F9C5" width="6.178" height="6.178"/>
	<polygon fill="#C5F9C5" points="476.706,469.87 482.076,466.816 515.668,525.89 521.039,522.836 481.34,453.021 411.525,492.722 
		414.578,498.093 473.652,464.5 	"/>
	
		<rect x="472.458" y="470.994" transform="matrix(0.8692 -0.4944 0.4944 0.8692 -172.1962 297.0863)" fill="#C5F9C5" width="6.178" height="6.177"/>
	<path fill="#C5F9C5" d="M514.09,548.109l-3.055-5.37l5.371-3.054l-3.055-5.371l-5.37,3.054l-33.593-59.073l-59.074,33.592
		l-3.053-5.37l-5.37,3.054l3.054,5.37l-5.371,3.054l39.701,69.814L514.09,548.109z M472.072,486.719l33.594,59.074l-59.074,33.592
		l-33.593-59.074L472.072,486.719z"/>
	
		<rect x="511.421" y="527.013" transform="matrix(-0.8693 0.4942 -0.4942 -0.8693 1223.7856 736.6342)" fill="#C5F9C5" width="6.178" height="6.178"/>
	
		<rect x="440.922" y="524.926" transform="matrix(0.8693 -0.4942 0.4942 0.8693 -204.4743 288.8558)" fill="#C5F9C5" width="6.178" height="12.355"/>
	
		<rect x="667.613" y="499.217" transform="matrix(0.8693 -0.4943 0.4943 0.8693 -160.6252 397.1991)" fill="#C5F9C5" width="6.178" height="6.177"/>
	
		<rect x="722.686" y="546.076" transform="matrix(-0.8692 0.4944 -0.4944 -0.8692 1628.1482 667.7192)" fill="#C5F9C5" width="6.178" height="6.178"/>
	
		<rect x="729.74" y="470.995" transform="matrix(0.8693 -0.4943 0.4943 0.8693 -138.5529 424.2126)" fill="#C5F9C5" width="6.179" height="6.178"/>
	<polygon fill="#C5F9C5" points="733.988,469.872 739.357,466.818 772.95,525.892 778.32,522.838 738.621,453.023 668.807,492.724 
		671.86,498.094 730.934,464.501 	"/>
	
		<rect x="698.185" y="513.853" transform="matrix(0.8693 -0.4943 0.4943 0.8693 -163.056 417.276)" fill="#C5F9C5" width="18.534" height="6.178"/>
	
		<rect x="768.702" y="527.015" transform="matrix(-0.8693 0.4942 -0.4942 -0.8693 1704.7289 609.4777)" fill="#C5F9C5" width="6.178" height="6.178"/>
	
		<rect x="715.052" y="529.56" transform="matrix(-0.8692 0.4944 -0.4944 -0.8692 1607.2393 646.3967)" fill="#C5F9C5" width="6.178" height="12.357"/>
	
		<rect x="698.203" y="524.927" transform="matrix(0.8693 -0.4942 0.4942 0.8693 -170.8535 416.0168)" fill="#C5F9C5" width="6.178" height="12.355"/>
	<path fill="#C5F9C5" d="M701.557,587.812l69.814-39.7l-3.054-5.37l5.37-3.054l-3.055-5.371l-5.369,3.054l-33.593-59.074
		l-59.073,33.592l-3.055-5.37l-5.369,3.054l3.053,5.37l-5.37,3.055L701.557,587.812z M729.354,486.72l33.593,59.075l-59.074,33.592
		l-33.592-59.075L729.354,486.72z"/>
	
		<rect x="715.84" y="521.539" transform="matrix(-0.8693 0.4942 -0.4942 -0.8693 1603.2069 625.3689)" fill="#C5F9C5" width="6.178" height="6.178"/>
	
		<rect x="718.158" y="513.115" transform="matrix(0.4943 0.8693 -0.8693 0.4943 813.4501 -365.931)" fill="#C5F9C5" width="6.178" height="6.178"/>
	
		<rect x="650.964" y="751.809" transform="matrix(-0.8693 0.4943 -0.4943 -0.8693 1595.7686 1087.8091)" fill="#C5F9C5" width="6.178" height="6.179"/>
	<polygon fill="#C5F9C5" points="620.883,677.818 551.066,717.519 554.121,722.889 613.195,689.296 616.25,694.667 621.619,691.613 
		655.211,750.686 660.582,747.632 	"/>
	
		<rect x="612.002" y="695.79" transform="matrix(-0.8692 0.4944 -0.4944 -0.8692 1495.2671 1002.2912)" fill="#C5F9C5" width="6.178" height="6.177"/>
	
		<rect x="586.624" y="732.47" transform="matrix(-0.4944 -0.8692 0.8692 -0.4944 236.5604 1621.0657)" fill="#C5F9C5" width="6.178" height="18.533"/>
	
		<rect x="600.419" y="737.91" transform="matrix(0.8692 -0.4944 0.4944 0.8692 -287.4225 395.2468)" fill="#C5F9C5" width="6.178" height="6.178"/>
	
		<rect x="549.874" y="724.012" transform="matrix(0.8693 -0.4942 0.4942 0.8693 -287.1075 368.318)" fill="#C5F9C5" width="6.178" height="6.178"/>
	
		<rect x="580.464" y="749.722" transform="matrix(-0.8693 0.4942 -0.4942 -0.8693 1464.4514 1124.5989)" fill="#C5F9C5" width="6.178" height="12.355"/>
	
		<rect x="604.947" y="770.87" transform="matrix(-0.4944 -0.8692 0.8692 -0.4944 235.9351 1685.1453)" fill="#C5F9C5" width="6.178" height="6.177"/>
	<path fill="#C5F9C5" d="M613.933,703.091l-59.074,33.592l-3.054-5.37l-5.371,3.054l3.055,5.37l-5.371,3.055l39.701,69.815
		l69.814-39.7l-3.054-5.371l5.37-3.054l-3.054-5.37l-5.37,3.054L613.933,703.091z M586.135,804.181l-33.593-59.074l59.073-33.592
		l33.594,59.074L586.135,804.181z"/>
	
		<rect x="597.313" y="754.355" transform="matrix(0.8692 -0.4944 0.4944 0.8692 -297.4855 396.2656)" fill="#C5F9C5" width="6.178" height="12.357"/>
	
		<rect x="598.103" y="746.335" transform="matrix(0.8693 -0.4943 0.4943 0.8693 -291.8657 395.1417)" fill="#C5F9C5" width="6.178" height="6.178"/>
	
		<rect x="91.773" y="783.301" transform="matrix(-0.8692 0.4944 -0.4944 -0.8692 566.0936 1423.0602)" fill="#C5F9C5" width="6.178" height="6.178"/>
	
		<rect x="98.827" y="708.22" transform="matrix(0.8692 -0.4944 0.4944 0.8692 -338.3283 143.3898)" fill="#C5F9C5" width="6.178" height="6.178"/>
	
		<rect x="137.79" y="764.24" transform="matrix(-0.8693 0.4943 -0.4943 -0.8693 642.6456 1364.7158)" fill="#C5F9C5" width="6.178" height="6.178"/>
	
		<rect x="87.245" y="750.341" transform="matrix(0.4943 0.8693 -0.8693 0.4943 700.624 302.4724)" fill="#C5F9C5" width="6.178" height="6.178"/>
	
		<rect x="36.7" y="736.442" transform="matrix(0.8693 -0.4942 0.4942 0.8693 -360.3125 116.3071)" fill="#C5F9C5" width="6.178" height="6.178"/>
	
		<rect x="67.272" y="751.08" transform="matrix(0.8693 -0.4943 0.4943 0.8693 -362.8049 136.4265)" fill="#C5F9C5" width="18.534" height="6.177"/>
	
		<rect x="67.291" y="762.154" transform="matrix(0.8692 -0.4944 0.4944 0.8692 -370.6485 135.2585)" fill="#C5F9C5" width="6.177" height="12.355"/>
	<path fill="#C5F9C5" d="M70.644,825.037l69.814-39.7l-3.054-5.37l5.371-3.054l-3.055-5.371l-5.371,3.054l-33.592-59.074
		l-59.074,33.592l-3.053-5.37l-5.371,3.054l3.055,5.37l-5.371,3.054L70.644,825.037z M98.441,723.946l33.593,59.074l-59.073,33.592
		l-33.594-59.074L98.441,723.946z"/>
	
		<rect x="84.138" y="766.786" transform="matrix(-0.8693 0.4943 -0.4943 -0.8693 545.1348 1401.7745)" fill="#C5F9C5" width="6.179" height="12.357"/>
	
		<rect x="84.928" y="758.766" transform="matrix(-0.8693 0.4943 -0.4943 -0.8693 541.1258 1380.6128)" fill="#C5F9C5" width="6.178" height="6.177"/>
	<polygon fill="#C5F9C5" points="103.074,707.097 108.445,704.043 142.037,763.117 147.408,760.063 107.708,690.249 37.894,729.949 
		40.947,735.319 100.021,701.727 	"/>
	<path fill="#C5F9C5" d="M358.037,715.523l-59.074,33.592l-3.053-5.37l-5.371,3.054l3.055,5.37l-5.371,3.054l39.7,69.815
		l69.814-39.7l-3.054-5.37l5.371-3.054L397,771.543l-5.371,3.054L358.037,715.523z M330.24,816.614l-33.594-59.075l59.074-33.592
		l33.593,59.075L330.24,816.614z"/>
	
		<rect x="341.419" y="766.787" transform="matrix(0.8692 -0.4944 0.4944 0.8692 -337.0903 271.383)" fill="#C5F9C5" width="6.178" height="12.357"/>
	
		<rect x="349.052" y="783.303" transform="matrix(-0.4944 -0.8693 0.8693 -0.4944 -157.3438 1481.2581)" fill="#C5F9C5" width="6.179" height="6.177"/>
	
		<rect x="356.106" y="708.222" transform="matrix(-0.8693 0.4943 -0.4943 -0.8693 1023.0458 1152.0907)" fill="#C5F9C5" width="6.179" height="6.178"/>
	<polygon fill="#C5F9C5" points="364.988,690.251 295.173,729.951 298.227,735.321 357.301,701.729 360.354,707.099 
		365.725,704.045 399.316,763.119 404.688,760.065 	"/>
	
		<rect x="330.73" y="744.902" transform="matrix(-0.4943 -0.8693 0.8693 -0.4943 -156.7551 1417.1504)" fill="#C5F9C5" width="6.178" height="18.534"/>
	
		<rect x="293.979" y="736.444" transform="matrix(0.8693 -0.4942 0.4942 0.8693 -326.6924 243.4672)" fill="#C5F9C5" width="6.178" height="6.178"/>
	
		<rect x="324.57" y="762.155" transform="matrix(-0.8693 0.4943 -0.4943 -0.8693 992.2858 1274.2633)" fill="#C5F9C5" width="6.178" height="12.355"/>
	
		<rect x="342.208" y="758.767" transform="matrix(0.8693 -0.4943 0.4943 0.8693 -331.4611 270.274)" fill="#C5F9C5" width="6.178" height="6.178"/>
	
		<rect x="344.524" y="750.343" transform="matrix(0.8693 -0.4943 0.4943 0.8693 -326.9943 270.3179)" fill="#C5F9C5" width="6.178" height="6.178"/>
	
		<rect x="395.069" y="764.242" transform="matrix(-0.8693 0.4942 -0.4942 -0.8693 1123.5376 1237.5988)" fill="#C5F9C5" width="6.178" height="6.178"/>
	<polygon fill="#C5F9C5" points="247.249,915.045 177.434,954.745 180.488,960.115 239.563,926.522 242.615,931.893 
		247.986,928.839 281.578,987.912 286.949,984.858 	"/>
	
		<rect x="206.831" y="986.948" transform="matrix(-0.8693 0.4943 -0.4943 -0.8693 883.3178 1752.6659)" fill="#C5F9C5" width="6.178" height="12.356"/>
	
		<rect x="212.992" y="969.696" transform="matrix(-0.4942 -0.8694 0.8694 -0.4942 -528.1955 1650.6128)" fill="#C5F9C5" width="6.177" height="18.534"/>
	
		<rect x="224.469" y="983.56" transform="matrix(0.8693 -0.4943 0.4943 0.8693 -457.9709 241.4584)" fill="#C5F9C5" width="6.178" height="6.178"/>
	
		<rect x="223.68" y="991.581" transform="matrix(0.8693 -0.4942 0.4942 0.8693 -463.5067 242.4666)" fill="#C5F9C5" width="6.178" height="12.357"/>
	
		<rect x="231.314" y="1008.096" transform="matrix(-0.4943 -0.8693 0.8693 -0.4943 -528.7321 1714.7921)" fill="#C5F9C5" width="6.178" height="6.178"/>
	<path fill="#C5F9C5" d="M240.299,940.316l-59.074,33.593l-3.054-5.37l-5.37,3.054l3.054,5.37l-5.37,3.054l39.699,69.815
		l69.815-39.7l-3.054-5.371l5.371-3.054l-3.055-5.37l-5.371,3.054L240.299,940.316z M212.501,1041.407l-33.593-59.074l59.074-33.592
		l33.592,59.074L212.501,1041.407z"/>
	
		<rect x="277.331" y="989.035" transform="matrix(-0.8693 0.4943 -0.4943 -0.8693 1014.6072 1715.9446)" fill="#C5F9C5" width="6.178" height="6.178"/>
	
		<rect x="226.785" y="975.137" transform="matrix(0.8693 -0.4942 0.4942 0.8693 -453.4465 241.4489)" fill="#C5F9C5" width="6.178" height="6.178"/>
	
		<rect x="176.24" y="961.238" transform="matrix(0.8693 -0.4943 0.4943 0.8693 -453.2338 214.6943)" fill="#C5F9C5" width="6.179" height="6.178"/>
	
		<rect x="238.368" y="933.015" transform="matrix(-0.8693 0.4942 -0.4942 -0.8693 914.0288 1630.5398)" fill="#C5F9C5" width="6.178" height="6.178"/>
	<polygon fill="#C5F9C5" points="552.498,915.043 482.682,954.743 485.736,960.114 544.811,926.522 547.864,931.892 
		553.234,928.838 586.826,987.912 592.197,984.857 	"/>
	
		<rect x="536.562" y="1008.096" transform="matrix(-0.4944 -0.8692 0.8692 -0.4944 -72.4612 1980.2223)" fill="#C5F9C5" width="6.178" height="6.177"/>
	
		<rect x="528.929" y="991.58" transform="matrix(0.8693 -0.4943 0.4943 0.8693 -423.6639 393.4098)" fill="#C5F9C5" width="6.178" height="12.357"/>
	<path fill="#C5F9C5" d="M545.547,940.316l-59.073,33.592l-3.054-5.37l-5.371,3.054l3.055,5.37l-5.371,3.054l39.701,69.814
		l69.814-39.7l-3.055-5.37l5.371-3.054l-3.055-5.371l-5.371,3.054L545.547,940.316z M517.75,1041.406l-33.593-59.074l59.073-33.592
		l33.594,59.074L517.75,1041.406z"/>
	
		<rect x="582.579" y="989.034" transform="matrix(-0.8693 0.4942 -0.4942 -0.8693 1585.1567 1565.1316)" fill="#C5F9C5" width="6.178" height="6.178"/>
	
		<rect x="543.616" y="933.015" transform="matrix(-0.8693 0.4943 -0.4943 -0.8693 1484.6735 1479.6063)" fill="#C5F9C5" width="6.179" height="6.178"/>
	
		<rect x="512.08" y="986.948" transform="matrix(-0.8693 0.4942 -0.4942 -0.8693 1453.8667 1601.8486)" fill="#C5F9C5" width="6.178" height="12.355"/>
	
		<rect x="481.489" y="961.237" transform="matrix(0.8693 -0.4942 0.4942 0.8693 -413.2924 365.5193)" fill="#C5F9C5" width="6.178" height="6.178"/>
	
		<rect x="532.034" y="975.136" transform="matrix(0.8692 -0.4944 0.4944 0.8692 -413.6426 392.4567)" fill="#C5F9C5" width="6.178" height="6.178"/>
	
		<rect x="518.24" y="969.696" transform="matrix(-0.4944 -0.8692 0.8692 -0.4944 -71.8361 1916.1431)" fill="#C5F9C5" width="6.178" height="18.533"/>
	
		<rect x="529.718" y="983.56" transform="matrix(0.8693 -0.4943 0.4943 0.8693 -418.0693 392.3477)" fill="#C5F9C5" width="6.178" height="6.178"/>
	
		<rect x="738.771" y="961.239" transform="matrix(0.8692 -0.4944 0.4944 0.8692 -379.7451 492.8556)" fill="#C5F9C5" width="6.177" height="6.177"/>
	
		<rect x="789.316" y="975.137" transform="matrix(0.8692 -0.4944 0.4944 0.8692 -380.0029 519.6508)" fill="#C5F9C5" width="6.178" height="6.177"/>
	
		<rect x="769.361" y="986.949" transform="matrix(-0.8693 0.4942 -0.4942 -0.8693 1934.8083 1474.6896)" fill="#C5F9C5" width="6.178" height="12.355"/>
	
		<rect x="775.521" y="969.697" transform="matrix(-0.4944 -0.8692 0.8692 -0.4944 312.6541 2139.7773)" fill="#C5F9C5" width="6.178" height="18.534"/>
	
		<rect x="787" y="983.561" transform="matrix(0.8692 -0.4944 0.4944 0.8692 -384.4749 519.618)" fill="#C5F9C5" width="6.177" height="6.178"/>
	
		<rect x="800.899" y="933.017" transform="matrix(-0.8692 0.4944 -0.4944 -0.8692 1965.6407 1352.3406)" fill="#C5F9C5" width="6.178" height="6.177"/>
	<path fill="#C5F9C5" d="M802.829,940.317l-59.073,33.592l-3.055-5.37l-5.369,3.054l3.053,5.37l-5.371,3.054l39.701,69.815
		l69.814-39.7l-3.054-5.37l5.37-3.054l-3.054-5.371l-5.37,3.054L802.829,940.317z M775.031,1041.408l-33.592-59.075l59.073-33.592
		l33.593,59.075L775.031,1041.408z"/>
	
		<rect x="839.861" y="989.037" transform="matrix(-0.8693 0.4943 -0.4943 -0.8693 2066.1355 1437.8785)" fill="#C5F9C5" width="6.178" height="6.178"/>
	
		<rect x="786.211" y="991.581" transform="matrix(0.8693 -0.4943 0.4943 0.8693 -390.0331 520.5885)" fill="#C5F9C5" width="6.178" height="12.356"/>
	
		<rect x="793.845" y="1008.097" transform="matrix(-0.4943 -0.8693 0.8693 -0.4943 311.8655 2203.7925)" fill="#C5F9C5" width="6.178" height="6.178"/>
	<polygon fill="#C5F9C5" points="809.779,915.045 739.965,954.745 743.018,960.115 802.092,926.523 805.146,931.893 
		810.516,928.839 844.108,987.914 849.479,984.859 	"/>
	
		<rect x="1479.806" y="96.36" transform="matrix(0.8693 -0.4942 0.4942 0.8693 143.1042 746.3181)" fill="#C5F9C5" width="6.178" height="12.357"/>
	<polygon fill="#C5F9C5" points="1498.742,36.672 1504.112,33.618 1537.705,92.692 1543.074,89.638 1503.375,19.824 
		1433.561,59.523 1436.614,64.894 1495.688,31.302 	"/>
	
		<rect x="1482.912" y="79.916" transform="matrix(0.8693 -0.4943 0.4943 0.8693 153.2166 745.4047)" fill="#C5F9C5" width="6.178" height="6.178"/>
	
		<rect x="1494.495" y="37.795" transform="matrix(0.8693 -0.4942 0.4942 0.8693 175.4963 745.5211)" fill="#C5F9C5" width="6.178" height="6.178"/>
	
		<rect x="1480.596" y="88.34" transform="matrix(0.8692 -0.4944 0.4944 0.8692 148.7944 745.4525)" fill="#C5F9C5" width="6.178" height="6.178"/>
	
		<rect x="1432.367" y="66.017" transform="matrix(0.8693 -0.4943 0.4943 0.8693 153.4799 718.6026)" fill="#C5F9C5" width="6.178" height="6.178"/>
	
		<rect x="1469.118" y="74.475" transform="matrix(-0.4943 -0.8693 0.8693 -0.4943 2127.1467 1404.8999)" fill="#C5F9C5" width="6.178" height="18.534"/>
	
		<rect x="1487.441" y="112.876" transform="matrix(-0.4943 -0.8693 0.8693 -0.4943 2126.5166 1468.9792)" fill="#C5F9C5" width="6.178" height="6.178"/>
	
		<rect x="1462.957" y="91.727" transform="matrix(-0.8693 0.4942 -0.4942 -0.8693 2788.8992 -541.5754)" fill="#C5F9C5" width="6.178" height="12.355"/>
	<path fill="#C5F9C5" d="M1533.072,109.541l5.369-3.054l-3.054-5.371l-5.37,3.054l-33.592-59.074l-59.074,33.592l-3.054-5.37
		l-5.371,3.055l3.054,5.37l-5.37,3.054l39.7,69.815l69.814-39.7L1533.072,109.541z M1468.627,146.188l-33.593-59.075l59.073-33.592
		l33.594,59.075L1468.627,146.188z"/>
	
		<rect x="1533.458" y="93.816" transform="matrix(-0.8693 0.4943 -0.4943 -0.8693 2920.1401 -578.3983)" fill="#C5F9C5" width="6.178" height="6.177"/>
	
		<rect x="1362.068" y="321.153" transform="matrix(-0.8693 0.4942 -0.4942 -0.8693 2713.6995 -62.8401)" fill="#C5F9C5" width="6.178" height="12.356"/>
	
		<rect x="1365.174" y="304.708" transform="matrix(0.4943 0.8693 -0.8693 0.4943 959.4714 -1033.7585)" fill="#C5F9C5" width="6.178" height="6.179"/>
	
		<rect x="1362.859" y="313.133" transform="matrix(-0.8692 0.4944 -0.4944 -0.8692 2709.623 -84.2074)" fill="#C5F9C5" width="6.177" height="6.177"/>
	
		<rect x="1345.22" y="316.52" transform="matrix(0.8692 -0.4944 0.4944 0.8692 16.7634 708.7773)" fill="#C5F9C5" width="6.177" height="12.355"/>
	<path fill="#C5F9C5" d="M1348.573,379.404l69.814-39.7l-3.054-5.37l5.371-3.054l-3.055-5.371l-5.371,3.054l-33.592-59.074
		l-59.074,33.592l-3.053-5.37l-5.371,3.054l3.055,5.37l-5.371,3.054L1348.573,379.404z M1376.371,278.313l33.593,59.075
		l-59.073,33.593l-33.594-59.075L1376.371,278.313z"/>
	
		<rect x="1345.202" y="305.447" transform="matrix(0.8693 -0.4943 0.4943 0.8693 24.5289 709.8323)" fill="#C5F9C5" width="18.534" height="6.177"/>
	
		<rect x="1369.702" y="337.668" transform="matrix(-0.8693 0.4942 -0.4942 -0.8693 2734.6064 -41.5154)" fill="#C5F9C5" width="6.178" height="6.178"/>
	<polygon fill="#C5F9C5" points="1381.004,261.465 1386.375,258.411 1419.967,317.485 1425.338,314.431 1385.638,244.617 
		1315.822,284.316 1318.877,289.687 1377.95,256.095 	"/>
	
		<rect x="1314.629" y="290.81" transform="matrix(0.8693 -0.4943 0.4943 0.8693 26.9668 689.7755)" fill="#C5F9C5" width="6.179" height="6.178"/>
	
		<rect x="1415.72" y="318.608" transform="matrix(-0.8693 0.4943 -0.4943 -0.8693 2811.1738 -99.9971)" fill="#C5F9C5" width="6.178" height="6.178"/>
	
		<rect x="1376.756" y="262.588" transform="matrix(0.8693 -0.4942 0.4942 0.8693 49.007 716.7049)" fill="#C5F9C5" width="6.178" height="6.178"/>
	
		<rect x="1686.362" y="257.758" transform="matrix(0.8692 -0.4944 0.4944 0.8692 91.9424 869.3303)" fill="#C5F9C5" width="6.178" height="6.178"/>
	
		<rect x="1624.235" y="285.98" transform="matrix(0.8693 -0.4942 0.4942 0.8693 69.7856 842.0776)" fill="#C5F9C5" width="6.178" height="6.178"/>
	
		<rect x="1660.985" y="294.439" transform="matrix(-0.4943 -0.8693 0.8693 -0.4943 2222.646 1900.3829)" fill="#C5F9C5" width="6.178" height="18.534"/>
	<polygon fill="#C5F9C5" points="1690.609,256.635 1695.98,253.581 1729.572,312.655 1734.942,309.602 1695.242,239.787 
		1625.428,279.487 1628.482,284.857 1687.556,251.265 	"/>
	
		<rect x="1674.78" y="299.88" transform="matrix(0.8693 -0.4942 0.4942 0.8693 69.5209 868.8758)" fill="#C5F9C5" width="6.178" height="6.178"/>
	
		<rect x="1725.325" y="313.778" transform="matrix(-0.8693 0.4942 -0.4942 -0.8693 3387.5713 -261.9396)" fill="#C5F9C5" width="6.178" height="6.178"/>
	<path fill="#C5F9C5" d="M1724.939,329.504l5.37-3.054l-3.054-5.371l-5.371,3.054l-33.592-59.074l-59.074,33.592l-3.053-5.37
		l-5.371,3.054l3.053,5.37l-5.369,3.054l39.699,69.815l69.815-39.7L1724.939,329.504z M1660.494,366.15l-33.592-59.075
		l59.073-33.592l33.593,59.075L1660.494,366.15z"/>
	
		<rect x="1672.464" y="308.304" transform="matrix(0.8693 -0.4942 0.4942 0.8693 65.0547 868.8318)" fill="#C5F9C5" width="6.178" height="6.178"/>
	
		<rect x="1654.825" y="311.691" transform="matrix(-0.8693 0.4943 -0.4943 -0.8693 3256.2361 -225.3464)" fill="#C5F9C5" width="6.178" height="12.355"/>
	
		<rect x="1679.309" y="332.839" transform="matrix(-0.4942 -0.8694 0.8694 -0.4942 2221.7939 1964.5348)" fill="#C5F9C5" width="6.177" height="6.179"/>
	
		<rect x="1671.673" y="316.324" transform="matrix(0.8693 -0.4943 0.4943 0.8693 59.4982 870.004)" fill="#C5F9C5" width="6.179" height="12.356"/>
	<polygon fill="#C5F9C5" points="1884.184,307.076 1917,288.415 1917,281.309 1886.502,298.652 1883.447,293.282 1878.076,296.336 
		1881.13,301.706 1875.76,304.76 1915.461,374.575 1917,373.7 1917,364.785 	"/>
	<polygon fill="#C5F9C5" points="1917,302.63 1911.773,305.602 1914.827,310.972 1917,309.736 	"/>
	
		<rect x="1881.517" y="285.981" transform="matrix(0.8693 -0.4943 0.4943 0.8693 103.4596 969.3778)" fill="#C5F9C5" width="6.178" height="6.178"/>
	<polygon fill="#C5F9C5" points="1917,259.989 1882.71,279.488 1885.764,284.858 1917,267.096 	"/>
	<polygon fill="#C5F9C5" points="1915.564,324.766 1917,323.95 1917,314.794 1914.827,310.972 1909.457,314.026 	"/>
	
		<rect x="1812.006" y="533.097" transform="matrix(0.8693 -0.4942 0.4942 0.8693 -27.814 967.1765)" fill="#C5F9C5" width="6.178" height="6.178"/>
	
		<rect x="1811.216" y="541.118" transform="matrix(0.8693 -0.4943 0.4943 0.8693 -33.3792 968.3647)" fill="#C5F9C5" width="6.179" height="12.356"/>
	
		<rect x="1818.851" y="557.633" transform="matrix(-0.4943 -0.8693 0.8693 -0.4943 2235.1289 2421.6758)" fill="#C5F9C5" width="6.178" height="6.179"/>
	
		<rect x="1814.323" y="524.673" transform="matrix(0.8693 -0.4943 0.4943 0.8693 -23.3174 967.347)" fill="#C5F9C5" width="6.179" height="6.178"/>
	<path fill="#C5F9C5" d="M1827.836,489.854l-59.074,33.592l-3.053-5.37l-5.373,3.054l3.055,5.37l-5.371,3.054l39.701,69.814
		l69.814-39.7l-3.053-5.37l5.369-3.054l-3.054-5.371l-5.37,3.054L1827.836,489.854z M1800.037,590.944l-33.593-59.074l59.073-33.592
		l33.594,59.074L1800.037,590.944z"/>
	<polygon fill="#C5F9C5" points="1834.785,464.582 1764.971,504.282 1768.024,509.652 1827.098,476.06 1830.152,481.43 
		1835.522,478.376 1869.115,537.449 1874.484,534.396 	"/>
	
		<rect x="1864.868" y="538.573" transform="matrix(-0.8693 0.4943 -0.4943 -0.8693 3759.4897 89.1564)" fill="#C5F9C5" width="6.178" height="6.177"/>
	
		<rect x="1763.778" y="510.775" transform="matrix(0.8693 -0.4943 0.4943 0.8693 -23.0502 940.5621)" fill="#C5F9C5" width="6.178" height="6.178"/>
	
		<rect x="1825.906" y="482.553" transform="matrix(-0.8692 0.4944 -0.4944 -0.8692 3658.929 3.5566)" fill="#C5F9C5" width="6.177" height="6.177"/>
	
		<rect x="1800.527" y="519.233" transform="matrix(-0.4944 -0.8692 0.8692 -0.4944 2236.0088 2357.5386)" fill="#C5F9C5" width="6.178" height="18.534"/>
	
		<rect x="1794.368" y="536.485" transform="matrix(-0.8693 0.4943 -0.4943 -0.8693 3628.2007 125.8786)" fill="#C5F9C5" width="6.178" height="12.355"/>
	<polygon fill="#C5F9C5" points="1312.617,498.692 1317.988,495.639 1351.58,554.712 1356.95,551.658 1317.25,481.844 
		1247.436,521.544 1250.49,526.915 1309.563,493.322 	"/>
	
		<rect x="1294.471" y="550.361" transform="matrix(-0.8693 0.4943 -0.4943 -0.8693 2699.0847 393.1478)" fill="#C5F9C5" width="6.178" height="6.177"/>
	
		<rect x="1293.681" y="558.381" transform="matrix(-0.8693 0.4943 -0.4943 -0.8693 2703.1011 414.3184)" fill="#C5F9C5" width="6.179" height="12.357"/>
	
		<rect x="1308.37" y="499.816" transform="matrix(0.8692 -0.4944 0.4944 0.8692 -77.1482 714.1096)" fill="#C5F9C5" width="6.178" height="6.178"/>
	<path fill="#C5F9C5" d="M1280.186,616.631l69.816-39.7l-3.055-5.37l5.371-3.054l-3.055-5.371l-5.371,3.054l-33.592-59.073
		l-59.074,33.592l-3.053-5.37l-5.371,3.054l3.055,5.37l-5.371,3.054L1280.186,616.631z M1307.984,515.541l33.593,59.074
		l-59.073,33.592l-33.594-59.074L1307.984,515.541z"/>
	
		<rect x="1276.833" y="553.749" transform="matrix(0.8692 -0.4944 0.4944 0.8692 -109.4606 705.9871)" fill="#C5F9C5" width="6.177" height="12.355"/>
	
		<rect x="1296.788" y="541.936" transform="matrix(0.4943 0.8693 -0.8693 0.4943 1131.1072 -854.3489)" fill="#C5F9C5" width="6.178" height="6.178"/>
	
		<rect x="1276.815" y="542.675" transform="matrix(0.8693 -0.4943 0.4943 0.8693 -101.6625 707.0996)" fill="#C5F9C5" width="18.534" height="6.177"/>
	
		<rect x="1246.243" y="528.038" transform="matrix(0.8693 -0.4942 0.4942 0.8693 -99.2469 686.8876)" fill="#C5F9C5" width="6.178" height="6.178"/>
	
		<rect x="1347.333" y="555.835" transform="matrix(-0.8692 0.4944 -0.4944 -0.8692 2800.5903 377.1375)" fill="#C5F9C5" width="6.177" height="6.177"/>
	
		<rect x="1301.315" y="574.896" transform="matrix(-0.8693 0.4943 -0.4943 -0.8693 2724.0083 435.6414)" fill="#C5F9C5" width="6.179" height="6.178"/>
	
		<rect x="1550.961" y="558.382" transform="matrix(-0.8693 0.4943 -0.4943 -0.8693 3184.0332 287.1452)" fill="#C5F9C5" width="6.179" height="12.357"/>
	<path fill="#C5F9C5" d="M1537.467,616.633l69.814-39.7l-3.053-5.37l5.369-3.054l-3.053-5.371l-5.371,3.054l-33.592-59.074
		l-59.074,33.592l-3.054-5.37l-5.37,3.054l3.054,5.37l-5.372,3.055L1537.467,616.633z M1565.266,515.541l33.592,59.075
		l-59.074,33.592l-33.592-59.075L1565.266,515.541z"/>
	<polygon fill="#C5F9C5" points="1569.898,498.693 1575.269,495.639 1608.861,554.713 1614.23,551.659 1574.531,481.845 
		1504.717,521.545 1507.771,526.915 1566.845,493.323 	"/>
	
		<rect x="1558.596" y="574.897" transform="matrix(-0.8693 0.4943 -0.4943 -0.8693 3204.9414 308.4679)" fill="#C5F9C5" width="6.179" height="6.178"/>
	
		<rect x="1604.615" y="555.837" transform="matrix(-0.8692 0.4944 -0.4944 -0.8692 3281.5125 249.9445)" fill="#C5F9C5" width="6.177" height="6.177"/>
	
		<rect x="1565.651" y="499.816" transform="matrix(0.8693 -0.4943 0.4943 0.8693 -43.5349 841.1773)" fill="#C5F9C5" width="6.179" height="6.178"/>
	
		<rect x="1503.524" y="528.038" transform="matrix(0.8693 -0.4942 0.4942 0.8693 -65.6256 814.0482)" fill="#C5F9C5" width="6.178" height="6.178"/>
	
		<rect x="1551.751" y="550.361" transform="matrix(-0.8693 0.4942 -0.4942 -0.8693 3180.0371 266.0985)" fill="#C5F9C5" width="6.178" height="6.178"/>
	
		<rect x="1534.114" y="553.748" transform="matrix(0.8693 -0.4943 0.4943 0.8693 -75.8409 833.0569)" fill="#C5F9C5" width="6.178" height="12.357"/>
	
		<rect x="1554.068" y="541.937" transform="matrix(0.4944 0.8692 -0.8692 0.4944 1260.9871 -1077.9576)" fill="#C5F9C5" width="6.178" height="6.177"/>
	
		<rect x="1534.096" y="542.675" transform="matrix(0.8693 -0.4943 0.4943 0.8693 -68.0281 834.287)" fill="#C5F9C5" width="18.533" height="6.178"/>
	<path fill="#C5F9C5" d="M1449.845,731.91l-59.074,33.592l-3.054-5.37l-5.37,3.054l3.054,5.37l-5.371,3.054l39.701,69.815
		l69.814-39.7l-3.054-5.37l5.37-3.054l-3.054-5.371l-5.37,3.054L1449.845,731.91z M1422.047,833.001l-33.593-59.075l59.074-33.592
		l33.593,59.075L1422.047,833.001z"/>
	
		<rect x="1433.225" y="783.174" transform="matrix(0.8692 -0.4944 0.4944 0.8692 -202.4358 813.2886)" fill="#C5F9C5" width="6.178" height="12.357"/>
	
		<rect x="1440.86" y="799.69" transform="matrix(-0.4943 -0.8693 0.8693 -0.4943 1459.8756 2454.8044)" fill="#C5F9C5" width="6.178" height="6.178"/>
	<polygon fill="#C5F9C5" points="1456.795,706.638 1386.98,746.338 1390.033,751.708 1449.107,718.115 1452.162,723.485 
		1457.531,720.432 1491.124,779.506 1496.494,776.452 	"/>
	
		<rect x="1486.877" y="780.629" transform="matrix(-0.8693 0.4943 -0.4943 -0.8693 3172.571 728.4755)" fill="#C5F9C5" width="6.178" height="6.178"/>
	
		<rect x="1385.786" y="752.831" transform="matrix(0.8693 -0.4943 0.4943 0.8693 -192.1128 785.3558)" fill="#C5F9C5" width="6.178" height="6.178"/>
	
		<rect x="1416.377" y="778.542" transform="matrix(-0.8693 0.4942 -0.4942 -0.8693 3041.283 765.3232)" fill="#C5F9C5" width="6.178" height="12.355"/>
	
		<rect x="1434.015" y="775.153" transform="matrix(0.8693 -0.4943 0.4943 0.8693 -196.8427 812.1138)" fill="#C5F9C5" width="6.178" height="6.178"/>
	
		<rect x="1447.914" y="724.609" transform="matrix(-0.8692 0.4944 -0.4944 -0.8692 3072.0415 642.9058)" fill="#C5F9C5" width="6.178" height="6.177"/>
	
		<rect x="1436.332" y="766.73" transform="matrix(0.8692 -0.4944 0.4944 0.8692 -192.3726 812.2852)" fill="#C5F9C5" width="6.177" height="6.177"/>
	
		<rect x="1422.537" y="761.289" transform="matrix(-0.4944 -0.8692 0.8692 -0.4944 1460.7281 2390.7209)" fill="#C5F9C5" width="6.178" height="18.534"/>
	
		<rect x="1731.906" y="756.65" transform="matrix(-0.4943 -0.8693 0.8693 -0.4943 1926.8809 2652.6406)" fill="#C5F9C5" width="6.178" height="18.425"/>
	
		<rect x="1725.827" y="773.812" transform="matrix(-0.8693 0.4943 -0.4943 -0.8693 3617.3669 603.477)" fill="#C5F9C5" width="6.142" height="12.355"/>
	
		<rect x="1695.3" y="748.065" transform="matrix(0.8693 -0.4943 0.4943 0.8693 -149.3098 937.6268)" fill="#C5F9C5" width="6.143" height="6.178"/>
	
		<rect x="1757.08" y="720.042" transform="matrix(-0.8693 0.4943 -0.4943 -0.8693 3647.6807 481.7251)" fill="#C5F9C5" width="6.14" height="6.177"/>
	
		<rect x="1796.01" y="776.08" transform="matrix(-0.8693 0.4943 -0.4943 -0.8693 3748.136 567.0992)" fill="#C5F9C5" width="6.141" height="6.177"/>
	
		<rect x="1750.228" y="795.014" transform="matrix(-0.4944 -0.8692 0.8692 -0.4944 1926.5142 2716.6938)" fill="#C5F9C5" width="6.178" height="6.141"/>
	
		<rect x="1745.656" y="762.072" transform="matrix(0.8693 -0.4944 0.4944 0.8693 -149.6324 964.5314)" fill="#C5F9C5" width="6.14" height="6.178"/>
	<polygon fill="#C5F9C5" points="1765.861,702.114 1696.459,741.58 1699.514,746.951 1758.238,713.558 1761.293,718.928 
		1766.63,715.892 1800.223,774.965 1805.562,771.929 	"/>
	<path fill="#C5F9C5" d="M1759.008,727.333l-58.727,33.395l-3.053-5.37l-5.34,3.036l3.055,5.37l-5.339,3.036l39.7,69.814
		l69.404-39.466l-3.055-5.37l5.338-3.035l-3.055-5.371l-5.338,3.035L1759.008,727.333z M1731.59,828.208l-33.594-59.074
		l58.726-33.394l33.593,59.074L1731.59,828.208z"/>
	
		<rect x="1743.37" y="770.478" transform="matrix(0.8693 -0.4943 0.4943 0.8693 -154.092 964.4471)" fill="#C5F9C5" width="6.143" height="6.178"/>
	
		<rect x="1742.613" y="778.48" transform="matrix(0.8693 -0.4943 0.4943 0.8693 -159.6851 965.4089)" fill="#C5F9C5" width="6.142" height="12.357"/>
	
		<rect x="1834.79" y="972.889" transform="matrix(0.8693 -0.4943 0.4943 0.8693 -242.1982 1036.1384)" fill="#C5F9C5" width="6.141" height="6.178"/>
	<polygon fill="#C5F9C5" points="1836.719,980.181 1831.38,983.217 1834.434,988.587 1829.096,991.623 1868.795,1061.438 
		1917,1034.026 1917,1026.92 1871.08,1053.032 1837.486,993.957 1896.213,960.563 1917,997.118 1917,984.695 1898.497,952.157 
		1839.771,985.551 	"/>
	
		<rect x="1885.145" y="986.896" transform="matrix(0.8693 -0.4943 0.4943 0.8693 -242.5444 1062.7151)" fill="#C5F9C5" width="6.14" height="6.178"/>
	
		<rect x="1896.569" y="944.865" transform="matrix(-0.8692 0.4944 -0.4944 -0.8692 4019.5415 832.7662)" fill="#C5F9C5" width="6.142" height="6.177"/>
	
		<rect x="1889.719" y="1019.838" transform="matrix(0.4942 0.8694 -0.8694 0.4942 1846.6539 -1128.1218)" fill="#C5F9C5" width="6.177" height="6.143"/>
	<polygon fill="#C5F9C5" points="1835.949,966.405 1839.002,971.775 1897.729,938.38 1900.783,943.75 1906.121,940.715 
		1917,959.846 1917,947.424 1905.352,926.939 	"/>
	
		<rect x="1882.86" y="995.301" transform="matrix(0.8693 -0.4943 0.4943 0.8693 -246.9985 1062.6646)" fill="#C5F9C5" width="6.142" height="6.179"/>
	
		<rect x="1882.101" y="1003.305" transform="matrix(-0.8693 0.4943 -0.4943 -0.8693 4022.9229 955.0991)" fill="#C5F9C5" width="6.143" height="12.356"/>
	
		<rect x="1871.395" y="981.474" transform="matrix(-0.4944 -0.8692 0.8692 -0.4944 1940.1782 3109.845)" fill="#C5F9C5" width="6.178" height="18.424"/>
	
		<rect x="1865.316" y="998.635" transform="matrix(-0.8693 0.4943 -0.4943 -0.8693 3989.2419 954.8143)" fill="#C5F9C5" width="6.143" height="12.356"/>
	
		<rect x="904.195" y="789.027" transform="matrix(0.8693 -0.4943 0.4943 0.8693 -274.4849 552.4329)" fill="#C5F9C5" width="6.178" height="12.357"/>
	
		<rect x="856.755" y="758.685" transform="matrix(0.8693 -0.4943 0.4943 0.8693 -264.1576 524.6021)" fill="#C5F9C5" width="6.179" height="6.177"/>
	
		<rect x="887.347" y="784.395" transform="matrix(-0.8692 0.4944 -0.4944 -0.8692 2055.2871 1037.5549)" fill="#C5F9C5" width="6.177" height="12.355"/>
	
		<rect x="918.883" y="730.462" transform="matrix(-0.8693 0.4942 -0.4942 -0.8693 2086.019 915.5581)" fill="#C5F9C5" width="6.178" height="6.178"/>
	
		<rect x="957.847" y="786.482" transform="matrix(-0.8693 0.4943 -0.4943 -0.8693 2186.5576 1000.9255)" fill="#C5F9C5" width="6.178" height="6.178"/>
	<path fill="#C5F9C5" d="M920.814,737.763l-59.074,33.593l-3.055-5.37l-5.369,3.054l3.054,5.37l-5.37,3.054l39.699,69.815
		l69.814-39.7l-3.053-5.37l5.371-3.054l-3.055-5.371l-5.371,3.054L920.814,737.763z M893.017,838.854l-33.593-59.075l59.074-33.593
		l33.593,59.075L893.017,838.854z"/>
	<polygon fill="#C5F9C5" points="927.765,712.491 857.949,752.191 861.004,757.561 920.078,723.969 923.131,729.339 
		928.502,726.285 962.094,785.359 967.465,782.306 	"/>
	
		<rect x="911.83" y="805.543" transform="matrix(-0.4943 -0.8693 0.8693 -0.4943 664.249 2003.6744)" fill="#C5F9C5" width="6.178" height="6.178"/>
	
		<rect x="907.3" y="772.583" transform="matrix(0.8693 -0.4942 0.4942 0.8693 -264.4055 551.3228)" fill="#C5F9C5" width="6.178" height="6.177"/>
	
		<rect x="893.507" y="767.142" transform="matrix(-0.4942 -0.8694 0.8694 -0.4942 664.7189 1939.564)" fill="#C5F9C5" width="6.177" height="18.534"/>
	
		<rect x="904.984" y="781.007" transform="matrix(0.8692 -0.4944 0.4944 0.8692 -268.9082 551.4625)" fill="#C5F9C5" width="6.177" height="6.178"/>
	
		<rect x="1162.266" y="781.008" transform="matrix(0.8693 -0.4943 0.4943 0.8693 -235.2592 678.5491)" fill="#C5F9C5" width="6.178" height="6.178"/>
	
		<rect x="1161.476" y="789.028" transform="matrix(0.8693 -0.4943 0.4943 0.8693 -240.8539 679.611)" fill="#C5F9C5" width="6.178" height="12.356"/>
	
		<rect x="1150.788" y="767.143" transform="matrix(-0.4942 -0.8694 0.8694 -0.4942 1049.1467 2163.2334)" fill="#C5F9C5" width="6.177" height="18.534"/>
	
		<rect x="1164.582" y="772.584" transform="matrix(0.8693 -0.4942 0.4942 0.8693 -230.7847 678.484)" fill="#C5F9C5" width="6.178" height="6.178"/>
	
		<rect x="1176.165" y="730.463" transform="matrix(-0.8692 0.4944 -0.4944 -0.8692 2566.9731 788.0876)" fill="#C5F9C5" width="6.177" height="6.177"/>
	
		<rect x="1114.037" y="758.685" transform="matrix(0.8692 -0.4944 0.4944 0.8692 -230.5376 651.8958)" fill="#C5F9C5" width="6.177" height="6.178"/>
	
		<rect x="1144.628" y="784.396" transform="matrix(-0.8692 0.4944 -0.4944 -0.8692 2536.2095 910.3618)" fill="#C5F9C5" width="6.177" height="12.355"/>
	
		<rect x="1169.112" y="805.543" transform="matrix(-0.4942 -0.8694 0.8694 -0.4942 1048.5137 2227.3074)" fill="#C5F9C5" width="6.177" height="6.178"/>
	<path fill="#C5F9C5" d="M1178.096,737.764l-59.074,33.592l-3.055-5.37l-5.369,3.054l3.053,5.37l-5.37,3.054l39.7,69.814
		l69.814-39.7l-3.053-5.37l5.37-3.054l-3.054-5.371l-5.371,3.054L1178.096,737.764z M1150.297,838.854l-33.592-59.074l59.073-33.592
		l33.593,59.074L1150.297,838.854z"/>
	<polygon fill="#C5F9C5" points="1185.045,712.491 1115.23,752.191 1118.283,757.562 1177.358,723.969 1180.412,729.34 
		1185.782,726.286 1219.375,785.359 1224.745,782.306 	"/>
	
		<rect x="1215.128" y="786.483" transform="matrix(-0.8692 0.4944 -0.4944 -0.8692 2667.4954 873.6339)" fill="#C5F9C5" width="6.177" height="6.177"/>
	
		<rect x="1033.05" y="991.937" transform="matrix(-0.4943 -0.8693 0.8693 -0.4943 677.9904 2396.8118)" fill="#C5F9C5" width="6.178" height="18.533"/>
	
		<rect x="1046.844" y="997.377" transform="matrix(0.8693 -0.4942 0.4942 0.8693 -357.274 649.6681)" fill="#C5F9C5" width="6.178" height="6.178"/>
	
		<rect x="1026.89" y="1009.189" transform="matrix(-0.8693 0.4942 -0.4942 -0.8693 2427.2046 1388.9805)" fill="#C5F9C5" width="6.178" height="12.356"/>
	
		<rect x="1044.528" y="1005.801" transform="matrix(0.8693 -0.4943 0.4943 0.8693 -361.7683 649.7341)" fill="#C5F9C5" width="6.178" height="6.178"/>
	
		<rect x="1058.426" y="955.255" transform="matrix(-0.8693 0.4943 -0.4943 -0.8693 2457.9946 1266.7048)" fill="#C5F9C5" width="6.179" height="6.179"/>
	<polygon fill="#C5F9C5" points="1067.309,937.284 997.493,976.984 1000.547,982.354 1059.621,948.762 1062.674,954.132 
		1068.045,951.078 1101.637,1010.152 1107.008,1007.099 	"/>
	
		<rect x="996.299" y="983.477" transform="matrix(0.8693 -0.4942 0.4942 0.8693 -357.0095 622.87)" fill="#C5F9C5" width="6.178" height="6.178"/>
	<path fill="#C5F9C5" d="M1060.357,962.557l-59.074,33.592l-3.053-5.371l-5.371,3.054l3.055,5.371l-5.371,3.054l39.7,69.814
		l69.814-39.7l-3.054-5.37l5.371-3.054l-3.055-5.371l-5.371,3.054L1060.357,962.557z M1032.561,1063.647l-33.594-59.074
		l59.074-33.592l33.592,59.074L1032.561,1063.647z"/>
	
		<rect x="1097.389" y="1011.275" transform="matrix(-0.8693 0.4942 -0.4942 -0.8693 2558.4951 1352.2623)" fill="#C5F9C5" width="6.178" height="6.178"/>
	
		<rect x="1043.739" y="1013.821" transform="matrix(0.8692 -0.4944 0.4944 0.8692 -367.3884 650.8935)" fill="#C5F9C5" width="6.178" height="12.357"/>
	
		<rect x="1051.373" y="1030.337" transform="matrix(-0.4944 -0.8692 0.8692 -0.4944 677.5579 2460.9407)" fill="#C5F9C5" width="6.178" height="6.177"/>
	
		<rect x="1354.135" y="1000.972" transform="matrix(0.8692 -0.4944 0.4944 0.8692 -318.926 802.2771)" fill="#C5F9C5" width="6.177" height="6.178"/>
	
		<rect x="1353.345" y="1008.992" transform="matrix(0.8693 -0.4943 0.4943 0.8693 -324.5049 803.2083)" fill="#C5F9C5" width="6.178" height="12.356"/>
	
		<rect x="1360.98" y="1025.506" transform="matrix(-0.4943 -0.8693 0.8693 -0.4943 1144.2103 2722.8081)" fill="#C5F9C5" width="6.178" height="6.178"/>
	<polygon fill="#C5F9C5" points="1376.914,932.456 1307.1,972.156 1310.152,977.526 1369.227,943.934 1372.281,949.304 
		1377.65,946.25 1411.243,1005.323 1416.613,1002.27 	"/>
	<path fill="#C5F9C5" d="M1369.964,957.728l-59.073,33.592l-3.055-5.37l-5.369,3.054l3.053,5.37l-5.37,3.054l39.7,69.814
		l69.814-39.7l-3.054-5.37l5.37-3.054l-3.054-5.371l-5.37,3.054L1369.964,957.728z M1342.166,1058.818l-33.592-59.074l59.073-33.592
		l33.593,59.074L1342.166,1058.818z"/>
	
		<rect x="1406.996" y="1006.446" transform="matrix(-0.8693 0.4943 -0.4943 -0.8693 3134.8762 1190.0782)" fill="#C5F9C5" width="6.178" height="6.178"/>
	
		<rect x="1356.451" y="992.548" transform="matrix(0.8693 -0.4942 0.4942 0.8693 -314.4281 802.0595)" fill="#C5F9C5" width="6.178" height="6.177"/>
	
		<rect x="1305.906" y="978.65" transform="matrix(0.8692 -0.4944 0.4944 0.8692 -314.1963 775.5146)" fill="#C5F9C5" width="6.177" height="6.177"/>
	
		<rect x="1368.034" y="950.427" transform="matrix(-0.8692 0.4944 -0.4944 -0.8692 3034.3638 1104.5076)" fill="#C5F9C5" width="6.178" height="6.177"/>
	
		<rect x="1342.657" y="987.107" transform="matrix(-0.4943 -0.8693 0.8693 -0.4943 1144.8391 2658.731)" fill="#C5F9C5" width="6.178" height="18.534"/>
	
		<rect x="1336.497" y="1004.359" transform="matrix(-0.8693 0.4943 -0.4943 -0.8693 3003.5881 1226.8003)" fill="#C5F9C5" width="6.178" height="12.355"/>
	
		<rect x="1611.416" y="1000.973" transform="matrix(0.8692 -0.4944 0.4944 0.8692 -285.2854 929.4729)" fill="#C5F9C5" width="6.177" height="6.177"/>
	
		<rect x="1610.626" y="1008.993" transform="matrix(0.8693 -0.4943 0.4943 0.8693 -290.8743 930.3866)" fill="#C5F9C5" width="6.178" height="12.357"/>
	
		<rect x="1618.261" y="1025.508" transform="matrix(-0.4943 -0.8693 0.8693 -0.4943 1528.6678 2946.4597)" fill="#C5F9C5" width="6.178" height="6.178"/>
	<path fill="#C5F9C5" d="M1627.245,957.729l-59.073,33.592l-3.055-5.37l-5.369,3.054l3.053,5.37l-5.37,3.054l39.7,69.815
		l69.814-39.7l-3.054-5.37l5.37-3.054l-3.053-5.371l-5.371,3.054L1627.245,957.729z M1599.447,1058.819l-33.592-59.075
		l59.073-33.592l33.593,59.075L1599.447,1058.819z"/>
	
		<rect x="1664.278" y="1006.448" transform="matrix(-0.8692 0.4944 -0.4944 -0.8692 3615.8132 1062.75)" fill="#C5F9C5" width="6.177" height="6.178"/>
	
		<rect x="1599.937" y="987.108" transform="matrix(-0.4944 -0.8693 0.8693 -0.4944 1529.4089 2882.3862)" fill="#C5F9C5" width="6.179" height="18.534"/>
	
		<rect x="1613.732" y="992.549" transform="matrix(0.8692 -0.4944 0.4944 0.8692 -280.8171 929.4989)" fill="#C5F9C5" width="6.178" height="6.177"/>
	
		<rect x="1593.777" y="1004.361" transform="matrix(-0.8693 0.4942 -0.4942 -0.8693 3484.5122 1099.7721)" fill="#C5F9C5" width="6.178" height="12.355"/>
	
		<rect x="1625.315" y="950.428" transform="matrix(-0.8692 0.4944 -0.4944 -0.8692 3515.2864 977.3148)" fill="#C5F9C5" width="6.178" height="6.177"/>
	
		<rect x="1563.187" y="978.65" transform="matrix(0.8692 -0.4944 0.4944 0.8692 -280.5552 902.7104)" fill="#C5F9C5" width="6.177" height="6.177"/>
	<polygon fill="#C5F9C5" points="1634.195,932.456 1564.381,972.156 1567.434,977.526 1626.508,943.934 1629.563,949.304 
		1634.932,946.25 1668.524,1005.325 1673.895,1002.271 	"/>
	
		<rect x="112.128" y="82.014" transform="matrix(-0.8692 0.4944 -0.4944 -0.8692 257.4418 102.1169)" fill="#C5F9C5" width="6.177" height="6.177"/>
	
		<rect x="94.49" y="85.402" transform="matrix(0.8693 -0.4943 0.4943 0.8693 -32.514 60.2058)" fill="#C5F9C5" width="6.178" height="12.355"/>
	
		<rect x="111.338" y="90.035" transform="matrix(-0.8692 0.4944 -0.4944 -0.8692 261.4581 123.2752)" fill="#C5F9C5" width="6.178" height="12.356"/>
	
		<rect x="164.989" y="87.49" transform="matrix(-0.8693 0.4943 -0.4943 -0.8693 358.9599 86.2332)" fill="#C5F9C5" width="6.178" height="6.178"/>
	<polygon fill="#C5F9C5" points="130.273,30.346 135.645,27.292 169.236,86.367 174.607,83.313 134.907,13.498 65.093,53.198 
		68.146,58.568 127.221,24.976 	"/>
	<path fill="#C5F9C5" d="M97.843,148.286l69.815-39.7l-3.055-5.37l5.371-3.054l-3.055-5.371l-5.371,3.054l-33.592-59.074
		L68.884,72.362l-3.054-5.37l-5.371,3.054l3.055,5.37l-5.371,3.055L97.843,148.286z M125.641,47.194l33.594,59.075l-59.074,33.592
		L66.566,80.786L125.641,47.194z"/>
	
		<rect x="114.444" y="73.59" transform="matrix(0.4943 0.8693 -0.8693 0.4943 126.09 -63.3938)" fill="#C5F9C5" width="6.178" height="6.179"/>
	
		<rect x="126.026" y="31.47" transform="matrix(0.8692 -0.4944 0.4944 0.8692 -0.2028 68.35)" fill="#C5F9C5" width="6.178" height="6.178"/>
	
		<rect x="94.472" y="74.328" transform="matrix(0.8693 -0.4943 0.4943 0.8693 -24.7078 61.3991)" fill="#C5F9C5" width="18.534" height="6.178"/>
	
		<rect x="118.973" y="106.55" transform="matrix(-0.8692 0.4944 -0.4944 -0.8692 282.3661 144.598)" fill="#C5F9C5" width="6.178" height="6.178"/>
	
		<rect x="63.899" y="59.691" transform="matrix(0.8693 -0.4942 0.4942 0.8693 -22.2751 41.3129)" fill="#C5F9C5" width="6.178" height="6.178"/>
	
		<rect x="373.506" y="54.862" transform="matrix(0.8693 -0.4942 0.4942 0.8693 20.5709 193.7046)" fill="#C5F9C5" width="6.178" height="6.178"/>
	<polygon fill="#C5F9C5" points="439.881,25.517 445.252,22.463 478.844,81.537 484.215,78.483 444.514,8.669 374.699,48.369 
		377.754,53.739 436.827,20.146 	"/>
	
		<rect x="428.58" y="101.721" transform="matrix(-0.8693 0.4943 -0.4943 -0.8693 858.7202 -17.4623)" fill="#C5F9C5" width="6.178" height="6.178"/>
	
		<rect x="404.079" y="69.499" transform="matrix(0.8693 -0.4943 0.4943 0.8693 18.1538 213.8208)" fill="#C5F9C5" width="18.533" height="6.177"/>
	
		<rect x="474.597" y="82.66" transform="matrix(-0.8693 0.4943 -0.4943 -0.8693 935.3162 -75.8386)" fill="#C5F9C5" width="6.178" height="6.178"/>
	<path fill="#C5F9C5" d="M407.449,143.456l69.814-39.7l-3.053-5.37l5.37-3.054l-3.054-5.371l-5.371,3.054l-33.592-59.074
		L378.49,67.533l-3.054-5.37l-5.37,3.054l3.054,5.37l-5.37,3.054L407.449,143.456z M435.248,42.365l33.592,59.075l-59.074,33.592
		l-33.592-59.075L435.248,42.365z"/>
	
		<rect x="421.734" y="77.186" transform="matrix(-0.8693 0.4943 -0.4943 -0.8693 833.7955 -59.9415)" fill="#C5F9C5" width="6.178" height="6.178"/>
	
		<rect x="435.633" y="26.64" transform="matrix(0.8693 -0.4943 0.4943 0.8693 42.6517 220.7501)" fill="#C5F9C5" width="6.179" height="6.178"/>
	
		<rect x="424.051" y="68.761" transform="matrix(0.4941 0.8694 -0.8694 0.4941 278.5433 -335.0035)" fill="#C5F9C5" width="6.178" height="6.178"/>
	
		<rect x="404.096" y="80.572" transform="matrix(0.8693 -0.4943 0.4943 0.8693 10.3442 212.618)" fill="#C5F9C5" width="6.178" height="12.356"/>
	
		<rect x="420.944" y="85.205" transform="matrix(-0.8693 0.4942 -0.4942 -0.8693 837.8212 -38.7524)" fill="#C5F9C5" width="6.178" height="12.357"/>
	
		<rect x="614.138" y="307.455" transform="matrix(-0.8693 0.4943 -0.4943 -0.8693 1307.2776 275.3892)" fill="#C5F9C5" width="6.178" height="6.178"/>
	
		<rect x="513.047" y="279.657" transform="matrix(0.8693 -0.4943 0.4943 0.8693 -72.2979 292.0892)" fill="#C5F9C5" width="6.179" height="6.178"/>
	<polygon fill="#C5F9C5" points="579.422,250.313 584.793,247.259 618.385,306.332 623.756,303.278 584.056,233.463 
		514.241,273.163 517.295,278.534 576.369,244.942 	"/>
	<path fill="#C5F9C5" d="M546.99,368.251l69.815-39.7l-3.054-5.37l5.371-3.054l-3.055-5.371l-5.371,3.054l-33.592-59.073
		l-59.074,33.592l-3.053-5.37l-5.371,3.054l3.054,5.37l-5.37,3.054L546.99,368.251z M574.789,267.16l33.592,59.074l-59.073,33.592
		l-33.593-59.074L574.789,267.16z"/>
	
		<rect x="563.592" y="293.556" transform="matrix(0.4942 0.8694 -0.8694 0.4942 544.5174 -342.5997)" fill="#C5F9C5" width="6.177" height="6.179"/>
	
		<rect x="543.62" y="294.294" transform="matrix(0.8693 -0.4943 0.4943 0.8693 -74.729 312.1739)" fill="#C5F9C5" width="18.533" height="6.177"/>
	
		<rect x="568.121" y="326.515" transform="matrix(-0.8693 0.4943 -0.4943 -0.8693 1230.6805 333.7657)" fill="#C5F9C5" width="6.178" height="6.178"/>
	
		<rect x="561.276" y="301.98" transform="matrix(-0.8692 0.4944 -0.4944 -0.8692 1205.7566 291.2359)" fill="#C5F9C5" width="6.177" height="6.178"/>
	
		<rect x="560.487" y="310.001" transform="matrix(-0.8693 0.4943 -0.4943 -0.8693 1209.7742 312.4426)" fill="#C5F9C5" width="6.178" height="12.356"/>
	
		<rect x="543.638" y="305.368" transform="matrix(0.8692 -0.4944 0.4944 0.8692 -82.5351 311.0295)" fill="#C5F9C5" width="6.177" height="12.355"/>
	
		<rect x="575.175" y="251.436" transform="matrix(0.8693 -0.4943 0.4943 0.8693 -50.2262 319.116)" fill="#C5F9C5" width="6.178" height="6.178"/>
	
		<rect x="880.424" y="251.433" transform="matrix(0.8693 -0.4942 0.4942 0.8693 -10.3404 469.936)" fill="#C5F9C5" width="6.178" height="6.178"/>
	
		<rect x="818.296" y="279.656" transform="matrix(0.8692 -0.4944 0.4944 0.8692 -32.3847 443.0423)" fill="#C5F9C5" width="6.178" height="6.178"/>
	
		<rect x="873.37" y="326.515" transform="matrix(-0.8693 0.4943 -0.4943 -0.8693 1801.2776 182.8741)" fill="#C5F9C5" width="6.178" height="6.178"/>
	
		<rect x="848.869" y="294.293" transform="matrix(0.8693 -0.4943 0.4943 0.8693 -34.827 463.0636)" fill="#C5F9C5" width="18.533" height="6.178"/>
	<polygon fill="#C5F9C5" points="884.672,250.311 890.042,247.257 923.633,306.331 929.004,303.277 889.305,233.462 819.49,273.163 
		822.543,278.533 881.617,244.94 	"/>
	
		<rect x="848.886" y="305.367" transform="matrix(0.8693 -0.4942 0.4942 0.8693 -42.6448 461.7999)" fill="#C5F9C5" width="6.178" height="12.355"/>
	<path fill="#C5F9C5" d="M922.055,328.55l-3.053-5.37l5.37-3.054l-3.055-5.371l-5.37,3.054l-33.592-59.074l-59.074,33.593
		l-3.055-5.37l-5.369,3.054l3.053,5.37l-5.37,3.054l39.7,69.815L922.055,328.55z M880.038,267.159l33.593,59.074l-59.074,33.593
		l-33.592-59.074L880.038,267.159z"/>
	
		<rect x="919.386" y="307.454" transform="matrix(-0.8693 0.4943 -0.4943 -0.8693 1877.8727 124.498)" fill="#C5F9C5" width="6.178" height="6.178"/>
	
		<rect x="865.735" y="309.999" transform="matrix(-0.8693 0.4943 -0.4943 -0.8693 1780.3694 161.5515)" fill="#C5F9C5" width="6.178" height="12.357"/>
	
		<rect x="866.524" y="301.979" transform="matrix(-0.8693 0.4942 -0.4942 -0.8693 1776.3657 140.4656)" fill="#C5F9C5" width="6.178" height="6.178"/>
	
		<rect x="868.842" y="293.556" transform="matrix(0.4943 0.8693 -0.8693 0.4943 698.7889 -607.9454)" fill="#C5F9C5" width="6.178" height="6.178"/>
	
		<rect x="1123.014" y="309.999" transform="matrix(-0.8693 0.4942 -0.4942 -0.8693 2261.3193 34.4636)" fill="#C5F9C5" width="6.178" height="12.358"/>
	
		<rect x="1123.804" y="301.98" transform="matrix(-0.8693 0.4942 -0.4942 -0.8693 2257.3042 13.3055)" fill="#C5F9C5" width="6.178" height="6.178"/>
	
		<rect x="1106.167" y="305.367" transform="matrix(0.8693 -0.4943 0.4943 0.8693 -9.002 589.0477)" fill="#C5F9C5" width="6.178" height="12.356"/>
	
		<rect x="1126.121" y="293.556" transform="matrix(0.4944 0.8692 -0.8692 0.4944 828.7356 -831.5526)" fill="#C5F9C5" width="6.178" height="6.177"/>
	<path fill="#C5F9C5" d="M1179.334,328.551l-3.053-5.37l5.369-3.054l-3.053-5.371l-5.371,3.054l-33.592-59.074l-59.074,33.592
		l-3.055-5.37l-5.369,3.054l3.053,5.37l-5.371,3.054l39.701,69.815L1179.334,328.551z M1137.318,267.159l33.592,59.075
		l-59.074,33.592l-33.592-59.075L1137.318,267.159z"/>
	
		<rect x="1176.667" y="307.455" transform="matrix(-0.8692 0.4944 -0.4944 -0.8692 2358.7791 -2.7704)" fill="#C5F9C5" width="6.177" height="6.177"/>
	
		<rect x="1137.704" y="251.434" transform="matrix(0.8693 -0.4942 0.4942 0.8693 23.2802 597.096)" fill="#C5F9C5" width="6.178" height="6.178"/>
	<polygon fill="#C5F9C5" points="1141.951,250.312 1147.321,247.258 1180.914,306.332 1186.283,303.277 1146.584,233.463 
		1076.77,273.163 1079.823,278.533 1138.897,244.941 	"/>
	
		<rect x="1106.149" y="294.293" transform="matrix(0.8693 -0.4943 0.4943 0.8693 -1.196 590.2409)" fill="#C5F9C5" width="18.533" height="6.178"/>
	
		<rect x="1075.576" y="279.657" transform="matrix(0.8692 -0.4944 0.4944 0.8692 1.2549 570.2354)" fill="#C5F9C5" width="6.178" height="6.177"/>
	
		<rect x="1130.649" y="326.515" transform="matrix(-0.8693 0.4942 -0.4942 -0.8693 2282.2271 55.7882)" fill="#C5F9C5" width="6.178" height="6.178"/>
	
		<rect x="988.41" y="519.086" transform="matrix(0.8693 -0.4943 0.4943 0.8693 -127.7058 561.422)" fill="#C5F9C5" width="18.534" height="6.178"/>
	
		<rect x="1008.382" y="518.349" transform="matrix(0.4944 0.8692 -0.8692 0.4944 964.6048 -615.5648)" fill="#C5F9C5" width="6.178" height="6.178"/>
	
		<rect x="1005.276" y="534.793" transform="matrix(-0.8693 0.4943 -0.4943 -0.8693 2152.3301 512.7766)" fill="#C5F9C5" width="6.178" height="12.357"/>
	
		<rect x="957.838" y="504.45" transform="matrix(0.8693 -0.4942 0.4942 0.8693 -125.2772 541.2613)" fill="#C5F9C5" width="6.178" height="6.177"/>
	
		<rect x="1019.965" y="476.228" transform="matrix(0.8693 -0.4943 0.4943 0.8693 -103.2036 568.3571)" fill="#C5F9C5" width="6.179" height="6.178"/>
	<polygon fill="#C5F9C5" points="1024.213,475.105 1029.582,472.051 1063.175,531.125 1068.545,528.071 1028.846,458.257 
		959.031,497.957 962.086,503.327 1021.158,469.735 	"/>
	
		<rect x="1058.928" y="532.249" transform="matrix(-0.8693 0.4943 -0.4943 -0.8693 2249.8347 475.7247)" fill="#C5F9C5" width="6.178" height="6.178"/>
	
		<rect x="1012.911" y="551.308" transform="matrix(-0.8693 0.4943 -0.4943 -0.8693 2173.2383 534.1)" fill="#C5F9C5" width="6.178" height="6.178"/>
	<path fill="#C5F9C5" d="M1061.596,553.345l-3.053-5.37l5.369-3.054l-3.054-5.371l-5.37,3.054l-33.593-59.074l-59.073,33.592
		l-3.055-5.37l-5.369,3.054l3.053,5.37l-5.37,3.054l39.7,69.815L1061.596,553.345z M1019.579,491.953l33.593,59.075l-59.074,33.592
		l-33.592-59.075L1019.579,491.953z"/>
	
		<rect x="988.427" y="530.161" transform="matrix(0.8693 -0.4942 0.4942 0.8693 -135.5137 560.1437)" fill="#C5F9C5" width="6.178" height="12.355"/>
	
		<rect x="1006.065" y="526.773" transform="matrix(-0.8693 0.4943 -0.4943 -0.8693 2148.3135 491.6199)" fill="#C5F9C5" width="6.178" height="6.178"/>
	<path fill="#C5F9C5" d="M1756.537,159.844l69.814-39.7l-3.053-5.37l5.369-3.054l-3.054-5.371l-5.37,3.054l-33.592-59.074
		l-59.074,33.592l-3.055-5.37l-5.371,3.055l3.055,5.37l-5.371,3.054L1756.537,159.844z M1784.334,58.752l33.594,59.075
		l-59.074,33.592l-33.594-59.075L1784.334,58.752z"/>
	
		<rect x="1784.721" y="43.027" transform="matrix(0.8693 -0.4943 0.4943 0.8693 210.8949 889.7571)" fill="#C5F9C5" width="6.179" height="6.178"/>
	
		<rect x="1823.684" y="99.047" transform="matrix(-0.8693 0.4943 -0.4943 -0.8693 3465.2407 -712.0817)" fill="#C5F9C5" width="6.178" height="6.178"/>
	<polygon fill="#C5F9C5" points="1788.969,41.904 1794.338,38.85 1827.931,97.924 1833.301,94.871 1793.602,25.056 1723.787,64.756 
		1726.841,70.126 1785.914,36.534 	"/>
	
		<rect x="1753.183" y="96.96" transform="matrix(0.8693 -0.4942 0.4942 0.8693 178.5331 881.5127)" fill="#C5F9C5" width="6.178" height="12.355"/>
	
		<rect x="1773.138" y="85.148" transform="matrix(0.4944 0.8692 -0.8692 0.4944 974.6939 -1499.3127)" fill="#C5F9C5" width="6.178" height="6.177"/>
	
		<rect x="1770.821" y="93.572" transform="matrix(-0.8693 0.4942 -0.4942 -0.8693 3363.7813 -696.0626)" fill="#C5F9C5" width="6.178" height="6.178"/>
	
		<rect x="1753.166" y="85.885" transform="matrix(0.8693 -0.4943 0.4943 0.8693 186.3975 882.8247)" fill="#C5F9C5" width="18.534" height="6.178"/>
	
		<rect x="1722.593" y="71.249" transform="matrix(0.8693 -0.4943 0.4943 0.8693 188.8311 862.7501)" fill="#C5F9C5" width="6.178" height="6.177"/>
	
		<rect x="1777.667" y="118.107" transform="matrix(-0.8693 0.4943 -0.4943 -0.8693 3388.6519 -653.691)" fill="#C5F9C5" width="6.179" height="6.179"/>
	
		<rect x="1770.032" y="101.592" transform="matrix(-0.8693 0.4943 -0.4943 -0.8693 3367.7437 -675.0146)" fill="#C5F9C5" width="6.179" height="12.357"/>
</g>
</svg>
