<?xml version="1.0" encoding="utf-8"?>
<!-- Generator: Adobe Illustrator 16.0.0, SVG Export Plug-In . SVG Version: 6.00 Build 0)  -->
<!DOCTYPE svg PUBLIC "-//W3C//DTD SVG 1.1 Tiny//EN" "http://www.w3.org/Graphics/SVG/1.1/DTD/svg11-tiny.dtd">
<svg version="1.1" baseProfile="tiny" id="Layer_1" xmlns="http://www.w3.org/2000/svg" xmlns:xlink="http://www.w3.org/1999/xlink"
	 x="0px" y="0px" width="381.001px" height="192.667px" viewBox="0 0 381.001 192.667" xml:space="preserve">
<g>
	<path fill="#D4FF5A" d="M16.235,93.556V33.028h4.656v-4.656h4.655v-4.656h4.656V19.06h60.528v60.528h-4.656v4.656h-4.656v4.656
		h-4.655v4.656H16.235z M72.107,88.899V37.684H20.891v51.216H72.107z M76.763,28.372h4.655v-4.656H30.203v4.656h-4.656v4.656h51.217
		V28.372z M34.859,79.588V46.996h18.624v4.656h4.656v23.28h-4.656v4.656H34.859z M53.483,74.932v-23.28H39.515v23.28H53.483z
		 M81.418,79.588h4.656V28.372h-4.656v4.656h-4.655v51.216h4.655V79.588z"/>
	<path fill="#D4FF5A" d="M100.042,79.588v-4.656h9.313v-23.28l-9.313,0.073v-4.729h23.28v4.656h-9.313v23.28h9.313v4.656H100.042z"
		/>
	<path fill="#D4FF5A" d="M132.634,79.588V46.996h18.624v4.656h4.656v23.28h-4.656v4.656H132.634z M151.258,74.932v-23.28h-13.968
		v23.28H151.258z"/>
	<path fill="#D4FF5A" d="M183.851,93.556V33.028h4.655v-4.656h4.656v-4.656h4.656V19.06h60.528v60.528h-4.656v4.656h-4.656v4.656
		h-4.656v4.656H183.851z M239.723,88.899V37.684h-51.217v51.216H239.723z M244.378,28.372h4.656v-4.656h-51.216v4.656h-4.656v4.656
		h51.216V28.372z M211.787,79.588V65.62h-4.656v-4.656h-4.655V46.996h4.655v13.968h13.969V46.996h4.655v13.968h-4.655v4.656h-4.656
		v13.968H211.787z M249.035,79.588h4.656V28.372h-4.656v4.656h-4.656v51.216h4.656V79.588z"/>
	<path fill="#D4FF5A" d="M272.315,79.588v-4.656h-4.656v-23.28h4.656v-4.656h13.968v4.656h4.656v23.28h-4.656v4.656H272.315z
		 M286.283,51.652h-13.968v23.28h13.968V51.652z"/>
	<path fill="#D4FF5A" d="M304.907,79.588v-4.656h-4.656V46.996h4.656v27.936h13.968V46.996h4.656v27.936h-4.656v4.656H304.907z"/>
	<path fill="#D4FF5A" d="M105.463,179.556v-60.528h4.655v-4.656h4.656v-4.656h4.656v-4.656h60.528v60.528h-4.656v4.656h-4.656v4.656
		h-4.656v4.656H105.463z M161.335,174.899v-51.216h-51.217v51.216H161.335z M165.99,114.372h4.656v-4.656h-51.216v4.656h-4.656
		v4.656h51.216V114.372z M124.087,165.588v-32.592h4.655v13.968h4.656v-4.656h4.656v-4.656h4.656v-4.656h4.655v4.656h-4.655v4.656
		h-4.656v4.656h-4.656v4.656h4.656v4.656h4.656v4.656h4.655v4.656h-4.655v-4.656h-4.656v-4.656h-4.656v-4.656h-4.656v13.968H124.087
		z M170.646,165.588h4.656v-51.216h-4.656v4.656h-4.656v51.216h4.656V165.588z"/>
	<path fill="#D4FF5A" d="M189.271,165.588v-32.592h9.313v4.656h4.655v23.28h4.656v-27.936h4.656v32.592h-4.656h-4.656v-4.656h-4.655
		v-23.28h-4.656v27.936H189.271z"/>
	<path fill="#D4FF5A" d="M226.519,165.588v-4.656h-4.656v-23.28h4.656v-4.656h13.968v4.656h4.656v23.28h-4.656v4.656H226.519z
		 M240.486,137.652h-13.968v23.28h13.968V137.652z"/>
	<path fill="#D4FF5A" d="M254.455,165.588v-32.592h4.655v27.936h4.656v-27.936h4.656v27.936h4.656v-27.936h4.655v32.592h-9.312
		v-4.656h-4.656v4.656H254.455z"/>
	<path fill="#D4FF5A" d="M287.047,179.556v-60.528h4.656v-4.656h4.655v-4.656h4.656v-4.656h60.528v60.528h-4.656v4.656h-4.656v4.656
		h-4.655v4.656H287.047z M342.919,174.899v-51.216h-51.216v51.216H342.919z M347.575,114.372h4.655v-4.656h-51.216v4.656h-4.656
		v4.656h51.217V114.372z M314.982,156.275v-9.312h4.656v-4.656h4.656v-4.656h-13.968v9.312h-4.656v-9.312h4.656v-4.656h13.968v4.656
		h4.656v4.656h-4.656v4.656h-4.656v9.312H314.982z M314.982,165.588v-4.656h4.656v4.656H314.982z M352.23,165.588h4.656v-51.216
		h-4.656v4.656h-4.655v51.216h4.655V165.588z"/>
</g>
</svg>
